<svg width="58" height="43" viewBox="0 0 58 43" fill="none" xmlns="http://www.w3.org/2000/svg">
<g clip-path="url(#clip0_802_3338)">
<path d="M34.7628 17.8241L30.4292 8.29022H25.7942V24.6259H29.619V15.6008L30.09 15.5066L33.3685 23.0244H36.1382L39.4167 15.5066L39.8877 15.6008L39.9065 24.6448H43.6749V8.29022H39.0775L34.7628 17.8241ZM21.5359 19.1995C20.4243 20.33 18.8416 21.0648 17.5227 21.0648C14.9979 21.0648 13.0949 19.0488 13.0949 16.3733C13.0949 13.6978 14.9979 11.7571 17.5227 11.7571C18.9358 11.7571 20.4808 12.5484 21.5359 13.8297L21.5925 13.905L24.0796 10.9657L24.023 10.9092C22.3838 9.21346 19.859 8.15833 17.4473 8.15833C12.4731 8.15833 8.72363 11.7006 8.72363 16.411C8.72363 21.1214 12.4166 24.7955 17.2966 24.7955C19.6518 24.7955 22.2331 23.6462 24.023 21.8185L24.0796 21.762L21.5925 19.143L21.5359 19.1995ZM46.8026 8.30906V24.6259H51.0608V8.30906H46.8026Z" fill="#958DB4"/>
<mask id="mask0_802_3338" style="mask-type:luminance" maskUnits="userSpaceOnUse" x="8" y="8" width="44" height="17">
<path d="M34.7628 17.8241L30.4292 8.29022H25.7942V24.6259H29.619V15.6008L30.09 15.5066L33.3685 23.0244H36.1382L39.4167 15.5066L39.8877 15.6008L39.9065 24.6448H43.6749V8.29022H39.0775L34.7628 17.8241ZM21.5359 19.1995C20.4243 20.33 18.8416 21.0648 17.5227 21.0648C14.9979 21.0648 13.0949 19.0488 13.0949 16.3733C13.0949 13.6978 14.9979 11.7571 17.5227 11.7571C18.9358 11.7571 20.4808 12.5484 21.5359 13.8297L21.5925 13.905L24.0796 10.9657L24.023 10.9092C22.3838 9.21346 19.859 8.15833 17.4473 8.15833C12.4731 8.15833 8.72363 11.7006 8.72363 16.411C8.72363 21.1214 12.4166 24.7955 17.2966 24.7955C19.6518 24.7955 22.2331 23.6462 24.023 21.8185L24.0796 21.762L21.5925 19.143L21.5359 19.1995ZM46.8026 8.30906V24.6259H51.0608V8.30906H46.8026Z" fill="white"/>
</mask>
<g mask="url(#mask0_802_3338)">
<path d="M0 22.9301C0 22.9301 22.3839 11.4933 57.1278 18.6719L52.7377 5.42627L7.02793 6.36835C7.02793 6.36835 2.9393 14.3949 0 22.9301Z" fill="#958DB4"/>
</g>
<path d="M25.7939 8.19592V24.5881H29.6L29.6565 24.0606V14.5832L30.1275 15.5253L33.3683 22.9678H36.138L36.3264 22.6286L39.473 15.5442L39.9063 14.734L39.9252 24.1171L39.9629 24.5881H43.75V8.19592H39.1338L38.9643 8.49739L34.7814 17.6921L30.5986 8.51623L30.4101 8.19592H25.7939Z" fill="#958DB4"/>
<path d="M21.5357 19.1054C20.424 20.2359 18.8601 20.9707 17.5601 20.9707C15.0541 20.9707 13.17 18.9735 13.17 16.3356C13.17 13.6978 15.0541 11.776 17.5601 11.776C18.9732 11.776 20.4805 12.5673 21.5357 13.8297L21.6299 13.9428L24.1735 10.9281L24.0981 10.8527C22.4401 9.15698 19.9153 8.08301 17.5035 8.08301C12.5105 8.08301 8.74219 11.6441 8.74219 16.3733C8.74219 21.1026 12.454 24.8144 17.3717 24.8144C19.7457 24.8144 22.327 23.665 24.1358 21.8186L24.2112 21.7432L21.6487 19.03L21.5357 19.1054Z" fill="#958DB4"/>
<path d="M51.5326 8.21497H46.7656V25.0405H51.5326V8.21497Z" fill="#958DB4"/>
<path d="M51.4946 8.21497H46.7842V24.984H51.4946V8.21497Z" fill="#958DB4"/>
<path d="M51.4569 8.21497H46.7842V24.9463H51.4569V8.21497Z" fill="#958DB4"/>
<path d="M51.4004 8.21497H46.7842V24.8898H51.4004V8.21497Z" fill="#958DB4"/>
<path d="M51.3627 8.21497H46.7842V24.8521H51.3627V8.21497Z" fill="#958DB4"/>
<path d="M51.325 8.21497H46.7842V24.8144H51.325V8.21497Z" fill="#958DB4"/>
<path d="M51.2685 8.21497H46.7842V24.7579H51.2685V8.21497Z" fill="#958DB4"/>
<path d="M34.7628 17.8241L30.4292 8.29022H25.7942V24.6259H29.619V14.4703L30.09 15.5066L33.3685 23.0244H36.1382L39.4167 15.5066L39.8877 14.6398L39.9065 24.6448H43.6749V8.29022H39.0775L34.7628 17.8241ZM21.5359 19.1995C20.4243 20.33 18.8416 21.0648 17.5227 21.0648C14.9979 21.0648 13.0949 19.0488 13.0949 16.3733C13.0949 13.6978 14.9979 11.7571 17.5227 11.7571C18.9358 11.7571 20.4808 12.5484 21.5359 13.8297L21.5925 13.905L24.0796 10.9657L24.023 10.9092C22.3838 9.21346 19.859 8.15833 17.4473 8.15833C12.4731 8.15833 8.72363 11.7006 8.72363 16.411C8.72363 21.1214 12.4166 24.7955 17.2966 24.7955C19.6518 24.7955 22.2331 23.6462 24.023 21.8185L24.0796 21.762L21.5925 19.143L21.5359 19.1995ZM46.8026 8.30906V24.6259H51.0608V8.30906H46.8026Z" fill="#958DB4"/>
<g opacity="0.43">
<path d="M21.4988 19.0864C20.3872 20.2169 18.8045 20.9518 17.4856 20.9518C14.9608 20.9518 13.0578 18.9357 13.0578 16.2602C13.0578 13.5847 14.9608 11.644 17.4856 11.644C18.8987 11.644 20.4437 12.4353 21.4988 13.7166L21.5554 13.7919L24.0425 10.8715L23.9859 10.815C22.3467 9.11922 19.8219 8.06409 17.4102 8.06409C12.436 8.06409 8.68652 11.6063 8.68652 16.3167C8.68652 21.0271 12.3795 24.7013 17.2595 24.7013C19.6147 24.7013 22.196 23.5519 23.9859 21.7243L24.0425 21.6677L21.5365 19.0111L21.4988 19.0864ZM46.7655 8.21482V24.5317H51.0237V8.21482H46.7655Z" fill="#958DB4"/>
</g>
<path d="M51.5325 28.074H10.665V28.7334H51.5325V28.074Z" fill="#958DB4"/>
<path d="M11.5126 41.6211C11.3619 41.6211 11.2112 41.6023 11.117 41.5646C11.0227 41.5269 10.9285 41.4704 10.8532 41.395C10.7966 41.3196 10.7401 41.2443 10.7213 41.1312C10.7024 41.037 10.6836 40.924 10.6836 40.8298V39.9065H11.3054V40.7167C11.3054 40.8298 11.3242 40.9051 11.3619 40.9428C11.3996 40.9805 11.4749 40.9993 11.5692 40.9993H14.1128V39.4543H14.7345V41.6211H11.5126ZM12.0779 38.6064C12.0779 38.5122 12.1156 38.4369 12.1721 38.3803C12.2286 38.3238 12.304 38.2861 12.3982 38.2861C12.4924 38.2861 12.5678 38.3238 12.6243 38.3803C12.6808 38.4369 12.7185 38.5122 12.7185 38.6064C12.7185 38.7006 12.6808 38.776 12.6243 38.8325C12.5678 38.8891 12.4924 38.9268 12.3982 38.9268C12.304 38.9268 12.2286 38.8891 12.1721 38.8325C12.1156 38.776 12.0779 38.6818 12.0779 38.6064ZM12.9257 38.6064C12.9257 38.5122 12.9634 38.4369 13.02 38.3803C13.0765 38.3238 13.1518 38.2861 13.2461 38.2861C13.3403 38.2861 13.4156 38.3238 13.4722 38.3803C13.5287 38.4369 13.5664 38.5122 13.5664 38.6064C13.5664 38.7006 13.5287 38.776 13.4722 38.8325C13.4156 38.8891 13.3403 38.9268 13.2461 38.9268C13.1518 38.9268 13.0765 38.8891 13.02 38.8325C12.9634 38.7572 12.9257 38.6818 12.9257 38.6064Z" fill="#958DB4"/>
<path d="M15.5635 37.7209H16.1853V40.9994H16.5621C16.6186 40.9994 16.6563 41.0182 16.6751 41.0371C16.694 41.0748 16.7128 41.0936 16.7128 41.1313V41.4704C16.7128 41.5081 16.694 41.527 16.6751 41.5646C16.6563 41.6023 16.6186 41.6212 16.5621 41.6212H15.5635V37.7209Z" fill="#958DB4"/>
<path d="M16.5248 41.6212C16.4682 41.6212 16.4305 41.6023 16.4117 41.5835C16.3929 41.5458 16.374 41.527 16.374 41.4893V41.169C16.374 41.1313 16.3929 41.0936 16.4117 41.0559C16.4305 41.0182 16.4682 40.9994 16.5248 40.9994H17.4292C17.4857 40.9994 17.5234 41.0182 17.5422 41.0371C17.561 41.0748 17.5799 41.0936 17.5799 41.1313V41.4704C17.5799 41.5081 17.561 41.527 17.5422 41.5646C17.5234 41.6023 17.4857 41.6212 17.4292 41.6212H16.5248Z" fill="#958DB4"/>
<path d="M17.4095 41.6212C17.353 41.6212 17.3153 41.6023 17.2965 41.5835C17.2776 41.5458 17.2588 41.527 17.2588 41.4893V41.169C17.2588 41.1313 17.2776 41.0936 17.2965 41.0559C17.3153 41.0182 17.353 40.9994 17.4095 40.9994H18.3139C18.3704 40.9994 18.4081 41.0182 18.427 41.0371C18.4458 41.0748 18.4647 41.0936 18.4647 41.1313V41.4704C18.4647 41.5081 18.4458 41.527 18.427 41.5646C18.4081 41.6023 18.3704 41.6212 18.3139 41.6212H17.4095Z" fill="#958DB4"/>
<path d="M18.2767 41.6213C18.2202 41.6213 18.1825 41.6024 18.1637 41.5836C18.1448 41.5459 18.126 41.527 18.126 41.4894V41.1691C18.126 41.1314 18.1448 41.0937 18.1637 41.056C18.1825 41.0183 18.2202 40.9995 18.2767 40.9995H19.0304V39.4545H19.6522V41.6213H18.2767ZM18.3332 42.3184C18.3332 42.2242 18.3709 42.1488 18.4274 42.0923C18.484 42.0358 18.5593 41.9981 18.6535 41.9981C18.7478 41.9981 18.8231 42.0358 18.8796 42.0923C18.9362 42.1488 18.9739 42.2242 18.9739 42.3184C18.9739 42.4126 18.9362 42.488 18.8796 42.5445C18.8231 42.601 18.7478 42.6387 18.6535 42.6387C18.5593 42.6387 18.484 42.601 18.4274 42.5445C18.3521 42.4691 18.3332 42.3938 18.3332 42.3184ZM19.1811 42.3184C19.1811 42.2242 19.2188 42.1488 19.2753 42.0923C19.3318 42.0358 19.4072 41.9981 19.5014 41.9981C19.5956 41.9981 19.671 42.0358 19.7275 42.0923C19.784 42.1488 19.8217 42.2242 19.8217 42.3184C19.8217 42.4126 19.784 42.488 19.7275 42.5445C19.671 42.601 19.5956 42.6387 19.5014 42.6387C19.4072 42.6387 19.3318 42.601 19.2753 42.5445C19.2188 42.488 19.1811 42.3938 19.1811 42.3184Z" fill="#958DB4"/>
<path d="M22.818 41.6211C22.6673 41.6211 22.5354 41.5834 22.4412 41.5081C22.347 41.4327 22.2716 41.3573 22.2151 41.2631C22.1586 41.3762 22.0644 41.4704 21.9513 41.5269C21.8383 41.5834 21.7064 41.6211 21.5556 41.6211H20.2744V40.9805H21.518C21.5933 40.9805 21.6499 40.9617 21.6875 40.924C21.7252 40.8863 21.7252 40.8109 21.7252 40.7167C21.7252 40.566 21.7252 40.4341 21.7064 40.3399C21.6875 40.2268 21.6687 40.1326 21.631 40.0761C21.5933 40.0007 21.518 39.9442 21.4426 39.9065C21.3484 39.8688 21.2353 39.85 21.0846 39.85H20.557V39.2471H21.1977C21.4049 39.2471 21.5933 39.2848 21.7252 39.3413C21.876 39.3978 21.989 39.492 22.0832 39.5862C22.1774 39.6993 22.2339 39.8123 22.2716 39.9631C22.3093 40.1138 22.3282 40.2645 22.3282 40.4341C22.3282 40.6225 22.3658 40.7544 22.4412 40.8486C22.5166 40.9428 22.6485 40.9993 22.818 40.9993H23.0065C23.063 40.9993 23.1007 41.0182 23.1195 41.037C23.1383 41.0747 23.1572 41.0936 23.1572 41.1312V41.4704C23.1572 41.5081 23.1383 41.5269 23.1195 41.5646C23.1007 41.6023 23.063 41.6211 23.0065 41.6211H22.818Z" fill="#958DB4"/>
<path d="M23.0062 41.6212C22.9497 41.6212 22.912 41.6023 22.8932 41.5835C22.8743 41.5458 22.8555 41.527 22.8555 41.4893V41.169C22.8555 41.1313 22.8743 41.0936 22.8932 41.0559C22.912 41.0182 22.9497 40.9994 23.0062 40.9994H23.9106C23.9671 40.9994 24.0048 41.0182 24.0236 41.0371C24.0425 41.0748 24.0613 41.0936 24.0613 41.1313V41.4704C24.0613 41.5081 24.0425 41.527 24.0236 41.5646C24.0048 41.6023 23.9671 41.6212 23.9106 41.6212H23.0062Z" fill="#958DB4"/>
<path d="M23.8919 41.6212C23.8354 41.6212 23.7977 41.6023 23.7789 41.5835C23.7601 41.5458 23.7412 41.527 23.7412 41.4893V41.169C23.7412 41.1313 23.7601 41.0936 23.7789 41.0559C23.7977 41.0182 23.8354 40.9994 23.8919 40.9994H24.7963C24.8529 40.9994 24.8906 41.0182 24.9094 41.0371C24.9282 41.0748 24.9471 41.0936 24.9471 41.1313V41.4704C24.9471 41.5081 24.9282 41.527 24.9094 41.5646C24.8906 41.6023 24.8529 41.6212 24.7963 41.6212H23.8919Z" fill="#958DB4"/>
<path d="M27.5279 40.9993H28.0554C28.112 40.9993 28.1496 41.0182 28.1685 41.037C28.1873 41.0747 28.2062 41.0935 28.2062 41.1312V41.4704C28.2062 41.5081 28.1873 41.5269 28.1685 41.5646C28.1496 41.6023 28.112 41.6211 28.0554 41.6211H24.7582C24.7016 41.6211 24.6639 41.6023 24.6451 41.5834C24.6263 41.5646 24.6074 41.5269 24.6074 41.4892V41.1689C24.6074 41.1312 24.6263 41.0935 24.6451 41.0559C24.6639 41.0182 24.7016 40.9993 24.7582 40.9993H25.4553C25.4365 40.9616 25.3988 40.8863 25.3611 40.7921C25.3234 40.6979 25.3046 40.5848 25.3046 40.4341C25.3046 40.2833 25.3422 40.1326 25.3988 40.0007C25.4553 39.85 25.5307 39.7369 25.6437 39.6239C25.7568 39.5108 25.8698 39.4355 26.0205 39.3601C26.1713 39.2847 26.3409 39.2659 26.5104 39.2659C26.6612 39.2659 26.793 39.2847 26.9249 39.3413C27.0568 39.3978 27.151 39.4732 27.2453 39.5485C27.3395 39.6427 27.396 39.7558 27.4525 39.8877C27.509 40.0196 27.5279 40.1703 27.5279 40.321V40.9993ZM25.7379 38.6064C25.7379 38.5122 25.7756 38.4369 25.8321 38.3803C25.8887 38.3238 25.964 38.2861 26.0582 38.2861C26.1524 38.2861 26.2278 38.3238 26.2843 38.3803C26.3409 38.4369 26.3785 38.5122 26.3785 38.6064C26.3785 38.7006 26.3409 38.776 26.2843 38.8325C26.2278 38.8891 26.1524 38.9268 26.0582 38.9268C25.964 38.9268 25.8887 38.8891 25.8321 38.8325C25.7756 38.776 25.7379 38.6818 25.7379 38.6064ZM26.9061 40.9993V40.3022C26.9061 40.2457 26.9061 40.208 26.8873 40.1515C26.8684 40.0949 26.8496 40.0572 26.8119 40.0196C26.7742 39.9819 26.7365 39.9442 26.68 39.9254C26.6235 39.9065 26.567 39.8877 26.4727 39.8877C26.3974 39.8877 26.3408 39.9065 26.2655 39.9254C26.209 39.9442 26.1524 39.9819 26.0959 40.0384C26.0394 40.0949 26.0017 40.1515 25.9829 40.208C25.9452 40.2833 25.9452 40.3587 25.9452 40.4341C25.9452 40.566 25.964 40.6602 26.0205 40.7355C26.0771 40.8109 26.1336 40.8674 26.1901 40.9051C26.2655 40.9428 26.3409 40.9805 26.4351 40.9805H26.9061V40.9993ZM26.5858 38.6064C26.5858 38.5122 26.6235 38.4369 26.68 38.3803C26.7365 38.3238 26.8119 38.2861 26.9061 38.2861C27.0003 38.2861 27.0757 38.3238 27.1322 38.3803C27.1887 38.4369 27.2264 38.5122 27.2264 38.6064C27.2264 38.7006 27.1887 38.776 27.1322 38.8325C27.0757 38.8891 27.0003 38.9268 26.9061 38.9268C26.8119 38.9268 26.7365 38.8891 26.68 38.8325C26.6235 38.776 26.5858 38.6818 26.5858 38.6064Z" fill="#958DB4"/>
<path d="M28.0365 41.6212C27.98 41.6212 27.9423 41.6023 27.9234 41.5835C27.9046 41.5458 27.8857 41.527 27.8857 41.4893V41.169C27.8857 41.1313 27.9046 41.0936 27.9234 41.0559C27.9423 41.0182 27.98 40.9994 28.0365 40.9994H28.9409C28.9974 40.9994 29.0351 41.0182 29.0539 41.0371C29.0728 41.0748 29.0916 41.0936 29.0916 41.1313V41.4704C29.0916 41.5081 29.0728 41.527 29.0539 41.5646C29.0351 41.6023 28.9974 41.6212 28.9409 41.6212H28.0365Z" fill="#958DB4"/>
<path d="M28.9222 41.6212C28.8657 41.6212 28.828 41.6023 28.8092 41.5835C28.7903 41.5458 28.7715 41.527 28.7715 41.4893V41.169C28.7715 41.1313 28.7903 41.0936 28.8092 41.0559C28.828 41.0182 28.8657 40.9994 28.9222 40.9994H29.8266C29.8831 40.9994 29.9208 41.0182 29.9397 41.0371C29.9585 41.0748 29.9774 41.0936 29.9774 41.1313V41.4704C29.9774 41.5081 29.9585 41.527 29.9397 41.5646C29.9208 41.6023 29.8831 41.6212 29.8266 41.6212H28.9222Z" fill="#958DB4"/>
<path d="M29.8077 41.6211C29.7511 41.6211 29.7135 41.6023 29.6946 41.5834C29.6758 41.5646 29.6758 41.5269 29.6758 41.4892V41.1689C29.6758 41.1312 29.6946 41.0935 29.7135 41.0559C29.7323 41.0182 29.77 40.9993 29.8265 40.9993H30.3541C30.4294 40.9993 30.486 40.9805 30.5237 40.924C30.5613 40.8674 30.5613 40.8109 30.5613 40.7167V39.4543H31.1831V40.4906C31.1831 40.6413 31.2208 40.7544 31.2773 40.8486C31.3527 40.9428 31.4657 40.9993 31.6542 40.9993H31.8426C31.8991 40.9993 31.9368 41.0182 31.9556 41.037C31.9745 41.0747 31.9745 41.0935 31.9745 41.1312V41.4704C31.9745 41.5081 31.9556 41.5269 31.9368 41.5646C31.9179 41.6023 31.8803 41.6211 31.8237 41.6211H31.6165C31.4657 41.6211 31.3338 41.5834 31.2396 41.5081C31.1454 41.4327 31.0701 41.3573 31.0135 41.2631C30.957 41.3762 30.8628 41.4515 30.7498 41.5269C30.6367 41.6023 30.5048 41.6211 30.3541 41.6211H29.8077ZM30.5048 38.6064C30.5048 38.5122 30.5425 38.4369 30.599 38.3803C30.6555 38.3238 30.7309 38.2861 30.8251 38.2861C30.9193 38.2861 30.9947 38.3238 31.0512 38.3803C31.1077 38.4369 31.1454 38.5122 31.1454 38.6064C31.1454 38.7006 31.1077 38.776 31.0512 38.8325C30.9947 38.8891 30.9005 38.9268 30.8251 38.9268C30.7309 38.9268 30.6555 38.8891 30.599 38.8325C30.5425 38.7572 30.5048 38.6818 30.5048 38.6064Z" fill="#958DB4"/>
<path d="M31.7865 41.6212C31.73 41.6212 31.6923 41.6023 31.6734 41.5835C31.6546 41.5458 31.6357 41.527 31.6357 41.4893V41.169C31.6357 41.1313 31.6546 41.0936 31.6734 41.0559C31.6923 41.0182 31.73 40.9994 31.7865 40.9994H32.6909C32.7474 40.9994 32.7851 41.0182 32.8039 41.0371C32.8228 41.0748 32.8416 41.0936 32.8416 41.1313V41.4704C32.8416 41.5081 32.8228 41.527 32.8039 41.5646C32.7851 41.6023 32.7474 41.6212 32.6909 41.6212H31.7865Z" fill="#958DB4"/>
<path d="M32.6722 41.6212C32.6157 41.6212 32.578 41.6023 32.5592 41.5835C32.5403 41.5458 32.5215 41.527 32.5215 41.4893V41.169C32.5215 41.1313 32.5403 41.0936 32.5592 41.0559C32.578 41.0182 32.6157 40.9994 32.6722 40.9994H33.5766C33.6331 40.9994 33.6708 41.0182 33.6897 41.0371C33.7085 41.0748 33.7273 41.0936 33.7273 41.1313V41.4704C33.7273 41.5081 33.7085 41.527 33.6897 41.5646C33.6708 41.6023 33.6331 41.6212 33.5766 41.6212H32.6722Z" fill="#958DB4"/>
<path d="M33.557 41.6212C33.5005 41.6212 33.4628 41.6023 33.4439 41.5835C33.4251 41.5646 33.4062 41.527 33.4062 41.4893V41.169C33.4062 41.1313 33.4251 41.0936 33.4439 41.0559C33.4628 41.0182 33.5005 40.9994 33.557 40.9994H34.1976V37.7209H34.8194V41.6212H33.557Z" fill="#958DB4"/>
<path d="M35.7051 37.7209H36.3269V41.6212H35.7051V37.7209Z" fill="#958DB4"/>
<path d="M40.0204 41.6211C39.9073 41.6211 39.8131 41.6023 39.7377 41.5457C39.6624 41.4892 39.587 41.4515 39.5305 41.3762V41.5269C39.5305 41.6965 39.5116 41.8472 39.474 41.9791C39.4363 42.111 39.3609 42.2429 39.2855 42.3559C39.1913 42.469 39.0971 42.5443 38.9652 42.6009C38.8333 42.6574 38.6826 42.6951 38.5319 42.6951H38.3435C38.2869 42.6951 38.2304 42.6762 38.1927 42.6762C38.155 42.6762 38.1362 42.6762 38.1174 42.6574C38.0985 42.6574 38.0797 42.6574 38.042 42.6386L38.0985 42.0168L38.2493 42.0545C38.2869 42.0545 38.3435 42.0733 38.3811 42.0733H38.513C38.6638 42.0733 38.7768 42.0168 38.8333 41.9226C38.8899 41.8284 38.9087 41.6776 38.9087 41.4704V39.4355H39.5305V40.4718C39.5305 40.6225 39.5682 40.7355 39.6247 40.8298C39.6812 40.924 39.8131 40.9805 40.0015 40.9805H40.1899C40.2465 40.9805 40.2841 40.9993 40.303 41.0182C40.3218 41.0559 40.3218 41.0747 40.3218 41.1124V41.4515C40.3218 41.4892 40.303 41.5081 40.2841 41.5457C40.2653 41.5834 40.2276 41.6023 40.1711 41.6023H40.0204V41.6211ZM38.9087 38.6064C38.9087 38.5122 38.9464 38.4369 39.0029 38.3803C39.0594 38.3238 39.1348 38.2861 39.229 38.2861C39.3232 38.2861 39.3986 38.3238 39.4551 38.3803C39.5116 38.4369 39.5493 38.5122 39.5493 38.6064C39.5493 38.7006 39.5116 38.776 39.4551 38.8325C39.3986 38.8891 39.3044 38.9268 39.229 38.9268C39.1348 38.9268 39.0594 38.8891 39.0029 38.8325C38.9276 38.7572 38.9087 38.6818 38.9087 38.6064Z" fill="#958DB4"/>
<path d="M40.1703 41.6212C40.1137 41.6212 40.0761 41.6023 40.0572 41.5835C40.0384 41.5458 40.0195 41.527 40.0195 41.4893V41.169C40.0195 41.1313 40.0384 41.0936 40.0572 41.0559C40.0761 41.0182 40.1137 40.9994 40.1703 40.9994H41.0747C41.1312 40.9994 41.1689 41.0182 41.1877 41.0371C41.2066 41.0748 41.2254 41.0936 41.2254 41.1313V41.4704C41.2254 41.5081 41.2066 41.527 41.1877 41.5646C41.1689 41.6023 41.1312 41.6212 41.0747 41.6212H40.1703Z" fill="#958DB4"/>
<path d="M41.056 41.6212C40.9995 41.6212 40.9618 41.6023 40.943 41.5835C40.9241 41.5458 40.9053 41.527 40.9053 41.4893V41.169C40.9053 41.1313 40.9241 41.0936 40.943 41.0559C40.9618 41.0182 40.9995 40.9994 41.056 40.9994H41.9604C42.0169 40.9994 42.0546 41.0182 42.0735 41.0371C42.0923 41.0748 42.1111 41.0936 42.1111 41.1313V41.4704C42.1111 41.5081 42.0923 41.527 42.0735 41.5646C42.0546 41.6023 42.0169 41.6212 41.9604 41.6212H41.056Z" fill="#958DB4"/>
<path d="M41.9417 41.6211C41.8852 41.6211 41.8475 41.6023 41.8287 41.5834C41.8099 41.5458 41.791 41.5269 41.791 41.4892V41.1689C41.791 41.1312 41.8099 41.0936 41.8287 41.0559C41.8475 41.0182 41.8852 40.9994 41.9417 40.9994H43.6187V40.4718C43.6187 40.3399 43.5998 40.2457 43.5621 40.1703C43.5244 40.095 43.4868 40.0384 43.4302 40.0007C43.3737 39.9631 43.2983 39.9442 43.223 39.9254C43.1476 39.9254 43.0534 39.9065 42.978 39.9065H42.3186V39.3601L43.3737 37.6832L43.8824 38.0224L43.0534 39.3036H43.1099C43.2607 39.3036 43.3926 39.3224 43.5433 39.3601C43.694 39.3978 43.8071 39.4543 43.9013 39.5297C44.0143 39.6051 44.0897 39.737 44.1462 39.8689C44.2027 40.0196 44.2404 40.1892 44.2404 40.4153V41.6211H41.9417Z" fill="#958DB4"/>
<path d="M46.5389 41.6212C46.4259 41.6212 46.3317 41.6023 46.2563 41.5458C46.1809 41.4893 46.1056 41.4516 46.049 41.3762V41.527C46.049 41.6965 46.0302 41.8473 45.9925 41.9792C45.9548 42.1111 45.8795 42.243 45.8041 42.356C45.7099 42.4691 45.6157 42.5444 45.4838 42.6009C45.3519 42.6575 45.2012 42.6952 45.0504 42.6952H44.862C44.8055 42.6952 44.749 42.6763 44.7113 42.6763C44.6736 42.6763 44.6548 42.6763 44.6359 42.6575C44.6171 42.6575 44.5982 42.6575 44.5605 42.6386L44.6171 42.0169L44.7678 42.0545C44.8055 42.0545 44.862 42.0734 44.8997 42.0734H45.0316C45.1823 42.0734 45.2954 42.0169 45.3519 41.9226C45.4084 41.8284 45.4273 41.6777 45.4273 41.4704V39.4355H46.049V40.4718C46.049 40.6226 46.0867 40.7356 46.1432 40.8298C46.1998 40.924 46.3317 40.9806 46.5201 40.9806H46.7085C46.765 40.9806 46.8027 40.9994 46.8215 41.0182C46.8404 41.0559 46.8404 41.0748 46.8404 41.1125V41.4516C46.8404 41.4893 46.8215 41.5081 46.8027 41.5458C46.7839 41.5835 46.7462 41.6023 46.6897 41.6023H46.5389V41.6212Z" fill="#958DB4"/>
<path d="M46.6898 41.6212C46.6333 41.6212 46.5956 41.6023 46.5767 41.5835C46.5579 41.5458 46.5391 41.527 46.5391 41.4893V41.169C46.5391 41.1313 46.5579 41.0936 46.5767 41.0559C46.5956 41.0182 46.6333 40.9994 46.6898 40.9994H47.5942C47.6507 40.9994 47.6884 41.0182 47.7072 41.0371C47.7261 41.0748 47.7449 41.0936 47.7449 41.1313V41.4704C47.7449 41.5081 47.7261 41.527 47.7072 41.5646C47.6884 41.6023 47.6507 41.6212 47.5942 41.6212H46.6898Z" fill="#958DB4"/>
<path d="M47.5755 41.6212C47.519 41.6212 47.4813 41.6023 47.4625 41.5835C47.4436 41.5458 47.4248 41.527 47.4248 41.4893V41.169C47.4248 41.1313 47.4436 41.0936 47.4625 41.0559C47.4813 41.0182 47.519 40.9994 47.5755 40.9994H48.4799C48.5365 40.9994 48.5741 41.0182 48.593 41.0371C48.6118 41.0748 48.6307 41.0936 48.6307 41.1313V41.4704C48.6307 41.5081 48.6118 41.527 48.593 41.5646C48.5741 41.6023 48.5365 41.6212 48.4799 41.6212H47.5755Z" fill="#958DB4"/>
<path d="M48.4613 41.621C48.4048 41.621 48.3671 41.6022 48.3482 41.5833C48.3294 41.5457 48.3105 41.5268 48.3105 41.4891V41.1688C48.3105 41.1311 48.3294 41.0935 48.3482 41.0558C48.3671 41.0181 48.4048 40.9993 48.4613 40.9993H48.6685C48.8946 40.9993 49.0077 40.8297 49.0077 40.4905C49.0077 40.321 49.0265 40.1514 49.0831 40.0007C49.1396 39.8499 49.2149 39.718 49.328 39.6238C49.4222 39.5108 49.5541 39.4354 49.686 39.3789C49.8179 39.3224 49.9686 39.2847 50.1382 39.2847C50.3266 39.2847 50.4773 39.3224 50.6092 39.3789C50.7411 39.4354 50.8542 39.5296 50.9484 39.6427C51.0426 39.7557 51.0991 39.8876 51.1556 40.0383C51.1933 40.1891 51.2122 40.3586 51.2122 40.5471C51.2122 40.6978 51.1933 40.8297 51.1556 40.9616C51.118 41.0935 51.0614 41.2065 50.9672 41.3196C50.873 41.4138 50.76 41.508 50.6281 41.5645C50.4962 41.621 50.3266 41.6587 50.1382 41.6587C50.0628 41.6587 49.9875 41.6587 49.8932 41.6399C49.8179 41.6399 49.7425 41.621 49.6483 41.5833C49.5729 41.5645 49.4976 41.5268 49.4222 41.4703C49.3468 41.4138 49.2903 41.3572 49.2338 41.2819C49.1773 41.4138 49.1019 41.508 49.0077 41.5645C48.9135 41.621 48.8004 41.6587 48.7062 41.6587H48.4613V41.621ZM50.1193 41.0181C50.2889 41.0181 50.4208 40.9616 50.4962 40.8674C50.5715 40.7543 50.6281 40.6413 50.6281 40.4905C50.6281 40.3963 50.6092 40.3021 50.5904 40.2267C50.5715 40.1514 50.515 40.076 50.4773 40.0383C50.4397 39.9818 50.3831 39.9441 50.3266 39.9064C50.2701 39.8688 50.1947 39.8688 50.1382 39.8688C50.0628 39.8688 50.0063 39.8876 49.9498 39.9064C49.8932 39.9441 49.8367 39.9818 49.7802 40.0383C49.7425 40.0949 49.7048 40.1514 49.6671 40.2267C49.6295 40.3021 49.6295 40.3963 49.6295 40.4905C49.6295 40.6413 49.6671 40.7543 49.7425 40.8674C49.8179 40.9804 49.9498 41.0181 50.1193 41.0181Z" fill="#958DB4"/>
<path d="M56.2991 1.37544C55.4136 0.489883 54.2454 0 53.0019 0H7.8573C6.61375 0 5.44557 0.489883 4.56001 1.37544C3.67445 2.261 3.18457 3.42918 3.18457 4.67273V30.9003C3.18457 32.1438 3.67445 33.312 4.56001 34.1976C5.44557 35.0831 6.61375 35.573 7.8573 35.573H52.983C54.2266 35.573 55.3948 35.0831 56.2803 34.1976C57.1659 33.312 57.6557 32.1438 57.6557 30.9003V4.65388C57.6746 3.42918 57.1847 2.24215 56.2991 1.37544ZM57.1282 30.9003C57.1282 31.9931 56.6948 33.0482 55.9035 33.8207C55.1121 34.6121 54.0758 35.0454 52.983 35.0454H7.8573C6.76448 35.0454 5.70935 34.6121 4.93684 33.8207C4.14549 33.0294 3.71214 31.9931 3.71214 30.9003V4.67273C3.71214 3.56107 4.14549 2.52478 4.93684 1.75227C5.72819 0.960923 6.76448 0.527566 7.8573 0.527566H52.983C54.0758 0.527566 55.131 0.960923 55.9035 1.75227C56.6948 2.54362 57.1093 3.56107 57.1282 4.67273V30.9003Z" fill="#958DB4"/>
</g>
<defs>
<clipPath id="clip0_802_3338">
<rect width="57.6554" height="42.6951" fill="white"/>
</clipPath>
</defs>
</svg>
