<svg width="532" height="455" viewBox="0 0 532 455" fill="none" xmlns="http://www.w3.org/2000/svg">
<path d="M242.135 36.427C260.554 16.7195 291.807 16.7195 310.226 36.4269L326.894 54.2616C336.081 64.0908 349.067 69.47 362.514 69.0156L386.911 68.1911C413.871 67.28 435.97 89.379 435.058 116.338L434.234 140.736C433.78 154.182 439.159 167.169 448.988 176.355L466.823 193.024C486.53 211.443 486.53 242.695 466.823 261.114L448.988 277.783C439.159 286.97 433.78 299.956 434.234 313.402L435.058 337.8C435.97 364.759 413.871 386.858 386.911 385.947L362.514 385.123C349.067 384.668 336.081 390.047 326.894 399.877L310.226 417.711C291.807 437.419 260.554 437.419 242.135 417.711L225.466 399.877C216.28 390.047 203.293 384.668 189.847 385.123L165.45 385.947C138.49 386.858 116.391 364.759 117.302 337.8L118.127 313.402C118.581 299.956 113.202 286.97 103.373 277.783L85.5383 261.114C65.8309 242.695 65.8308 211.443 85.5383 193.024L103.373 176.355C113.202 167.169 118.581 154.182 118.127 140.736L117.302 116.338C116.391 89.379 138.49 67.28 165.45 68.1911L189.847 69.0156C203.293 69.47 216.28 64.0908 225.466 54.2616L242.135 36.427Z" fill="url(#paint0_linear_3085_1718)"/>
<g clip-path="url(#clip0_3085_1718)">
<g clip-path="url(#clip1_3085_1718)">
<path d="M369.381 91.1665H181.286C167.248 91.1665 155.868 102.547 155.868 116.585V517.345C155.868 531.383 167.248 542.763 181.286 542.763H369.381C383.419 542.763 394.799 531.383 394.799 517.345V116.585C394.799 102.547 383.419 91.1665 369.381 91.1665Z" fill="white"/>
<path d="M181.286 88.8365H370.796C384.835 88.8365 396.214 100.215 396.214 114.255V156.618H155.868V114.255C155.868 100.215 167.247 88.8365 181.286 88.8365Z" fill="white"/>
<path d="M366.17 83.0327H185.912C169.323 83.0327 155.868 96.4874 155.868 113.077V518.666C155.868 535.256 169.323 548.711 185.912 548.711H366.178C382.768 548.711 396.222 535.256 396.222 518.666V113.077C396.222 96.4874 382.776 83.0327 366.178 83.0327H366.17ZM388.995 518.666C388.995 531.274 378.777 541.492 366.17 541.492H185.912C173.305 541.492 163.087 531.274 163.087 518.666V113.077C163.087 100.47 173.305 90.2514 185.912 90.2514H209.035C211.619 90.2514 213.711 92.3442 213.711 94.9284V98.4954C213.711 103.816 218.024 108.12 223.336 108.12H327.314C332.635 108.12 336.939 103.808 336.939 98.4954V94.9284C336.939 92.3442 339.032 90.2514 341.616 90.2514H366.17C378.777 90.2514 388.995 100.47 388.995 113.077V518.666Z" fill="#122950"/>
</g>
</g>
<g filter="url(#filter0_d_3085_1718)">
<path d="M138.53 348.429C152.569 348.429 163.949 337.049 163.949 323.011C163.949 308.973 152.569 297.593 138.53 297.593C124.492 297.593 113.111 308.973 113.111 323.011C113.111 337.049 124.492 348.429 138.53 348.429Z" fill="url(#paint1_linear_3085_1718)"/>
<path d="M138.529 348.113C152.393 348.113 163.632 336.874 163.632 323.011C163.632 309.147 152.393 297.909 138.529 297.909C124.666 297.909 113.427 309.147 113.427 323.011C113.427 336.874 124.666 348.113 138.529 348.113Z" stroke="white" stroke-width="0.632513"/>
<g filter="url(#filter1_f_3085_1718)">
<path d="M138.531 343.429C149.807 343.429 158.948 334.288 158.948 323.012C158.948 311.737 149.807 302.596 138.531 302.596C127.255 302.596 118.114 311.737 118.114 323.012C118.114 334.288 127.255 343.429 138.531 343.429Z" fill="white"/>
</g>
<path d="M138.53 338.497C147.082 338.497 154.015 331.564 154.015 323.012C154.015 314.46 147.082 307.527 138.53 307.527C129.978 307.527 123.045 314.46 123.045 323.012C123.045 331.564 129.978 338.497 138.53 338.497Z" fill="#A89CF6"/>
<path d="M134.865 329.11H132.99C132.742 329.11 132.503 329.012 132.327 328.836C132.152 328.66 132.053 328.422 132.053 328.173V327.235C132.053 326.489 132.349 325.774 132.876 325.247C133.404 324.719 134.119 324.423 134.865 324.423H135.803M139.553 318.798C139.553 319.544 139.256 320.259 138.729 320.787C138.201 321.314 137.486 321.61 136.74 321.61C135.994 321.61 135.279 321.314 134.751 320.787C134.224 320.259 133.928 319.544 133.928 318.798C133.928 318.052 134.224 317.337 134.751 316.809C135.279 316.282 135.994 315.985 136.74 315.985C137.486 315.985 138.201 316.282 138.729 316.809C139.256 317.337 139.553 318.052 139.553 318.798ZM146.529 320.26C146.695 320.426 146.827 320.623 146.917 320.84C147.006 321.057 147.053 321.289 147.053 321.524C147.053 321.759 147.006 321.992 146.917 322.209C146.827 322.426 146.695 322.623 146.529 322.789L140.839 328.479L137.678 329.11L138.31 325.949L144 320.259C144.166 320.093 144.363 319.961 144.58 319.871C144.797 319.781 145.03 319.735 145.264 319.735C145.499 319.735 145.732 319.781 145.949 319.871C146.165 319.961 146.363 320.093 146.529 320.259V320.26Z" stroke="white" stroke-width="1.24999" stroke-linecap="square" stroke-linejoin="round"/>
</g>
<g filter="url(#filter2_d_3085_1718)">
<path d="M421.53 226.429C435.569 226.429 446.949 215.049 446.949 201.011C446.949 186.973 435.569 175.593 421.53 175.593C407.492 175.593 396.111 186.973 396.111 201.011C396.111 215.049 407.492 226.429 421.53 226.429Z" fill="url(#paint2_linear_3085_1718)"/>
<path d="M421.53 226.113C435.394 226.113 446.633 214.874 446.633 201.011C446.633 187.147 435.394 175.909 421.53 175.909C407.667 175.909 396.428 187.147 396.428 201.011C396.428 214.874 407.667 226.113 421.53 226.113Z" stroke="white" stroke-width="0.632513"/>
<g filter="url(#filter3_f_3085_1718)">
<path d="M421.532 221.429C432.808 221.429 441.949 212.288 441.949 201.012C441.949 189.737 432.808 180.596 421.532 180.596C410.256 180.596 401.115 189.737 401.115 201.012C401.115 212.288 410.256 221.429 421.532 221.429Z" fill="white"/>
</g>
<path d="M421.53 216.497C430.082 216.497 437.015 209.564 437.015 201.012C437.015 192.46 430.082 185.528 421.53 185.528C412.978 185.528 406.045 192.46 406.045 201.012C406.045 209.564 412.978 216.497 421.53 216.497Z" fill="#EE7DDD"/>
<path fill-rule="evenodd" clip-rule="evenodd" d="M420.54 197.738C421.036 197.738 421.512 197.541 421.863 197.19C422.214 196.839 422.412 196.363 422.412 195.866C422.412 195.37 422.214 194.894 421.863 194.543C421.512 194.192 421.036 193.995 420.54 193.995C420.044 193.995 419.568 194.192 419.217 194.543C418.866 194.894 418.669 195.37 418.669 195.866C418.669 196.363 418.866 196.839 419.217 197.19C419.568 197.541 420.044 197.738 420.54 197.738ZM420.54 199.609C421.533 199.609 422.485 199.215 423.187 198.513C423.889 197.811 424.283 196.859 424.283 195.866C424.283 194.874 423.889 193.922 423.187 193.22C422.485 192.518 421.533 192.124 420.54 192.124C419.547 192.124 418.596 192.518 417.894 193.22C417.192 193.922 416.797 194.874 416.797 195.866C416.797 196.859 417.192 197.811 417.894 198.513C418.596 199.215 419.547 199.609 420.54 199.609ZM428.938 195.866C429.186 195.866 429.424 195.965 429.6 196.141C429.775 196.316 429.874 196.554 429.874 196.802V198.182H431.254C431.502 198.182 431.74 198.281 431.915 198.456C432.091 198.632 432.189 198.87 432.189 199.118C432.189 199.366 432.091 199.604 431.915 199.78C431.74 199.955 431.502 200.054 431.254 200.054H429.874V201.434C429.874 201.682 429.775 201.92 429.6 202.095C429.424 202.271 429.186 202.37 428.938 202.37C428.69 202.37 428.452 202.271 428.276 202.095C428.101 201.92 428.002 201.682 428.002 201.434V200.054H426.622C426.374 200.054 426.136 199.955 425.96 199.78C425.785 199.604 425.686 199.366 425.686 199.118C425.686 198.87 425.785 198.632 425.96 198.456C426.136 198.281 426.374 198.182 426.622 198.182H428.002V196.802C428.002 196.554 428.101 196.316 428.276 196.141C428.452 195.965 428.69 195.866 428.938 195.866ZM414.789 202.581C415.685 201.327 417.05 200.545 418.803 200.545H422.278C424.03 200.545 425.395 201.328 426.291 202.581C427.162 203.8 427.558 205.412 427.558 207.095C427.558 207.343 427.459 207.581 427.284 207.756C427.108 207.932 426.87 208.03 426.622 208.03C426.374 208.03 426.136 207.932 425.96 207.756C425.785 207.581 425.686 207.343 425.686 207.095C425.686 205.676 425.35 204.481 424.769 203.669C424.212 202.891 423.405 202.416 422.278 202.416H418.803C417.675 202.416 416.868 202.891 416.312 203.669C415.732 204.481 415.394 205.676 415.394 207.094C415.394 207.342 415.295 207.58 415.12 207.755C414.944 207.931 414.706 208.029 414.458 208.029C414.21 208.029 413.972 207.931 413.797 207.755C413.621 207.58 413.522 207.342 413.522 207.094C413.522 205.412 413.917 203.8 414.789 202.581Z" fill="white"/>
<path fill-rule="evenodd" clip-rule="evenodd" d="M413.522 207.095C413.522 206.847 413.621 206.609 413.797 206.433C413.972 206.258 414.21 206.159 414.458 206.159H426.593C426.841 206.159 427.079 206.258 427.255 206.433C427.43 206.609 427.529 206.847 427.529 207.095C427.529 207.343 427.43 207.581 427.255 207.756C427.079 207.932 426.841 208.03 426.593 208.03H414.458C414.21 208.03 413.972 207.932 413.797 207.756C413.621 207.581 413.522 207.343 413.522 207.095Z" fill="white"/>
</g>
<g filter="url(#filter4_d_3085_1718)">
<path d="M347.111 288.065C347.111 283.386 350.905 279.593 355.584 279.593H490.639C495.318 279.593 499.111 283.386 499.111 288.065V321.015C499.111 325.694 495.318 329.487 490.639 329.487H355.584C350.905 329.487 347.111 325.694 347.111 321.015V288.065Z" fill="white"/>
<path d="M355.584 279.847H490.639C495.178 279.847 498.857 283.526 498.857 288.065V321.015C498.857 325.554 495.178 329.233 490.639 329.233H355.584C351.045 329.233 347.365 325.554 347.365 321.015V288.065C347.365 283.526 351.045 279.847 355.584 279.847Z" stroke="#F1F1F1" stroke-width="0.508364"/>
</g>
<rect x="398.111" y="293.593" width="60" height="8" fill="#F5F1FA"/>
<rect x="361.111" y="290.593" width="29" height="28" rx="14" fill="#F5F1FA"/>
<rect x="398.111" y="308.593" width="42.9015" height="6.83938" fill="#F5F1FA"/>
<g filter="url(#filter5_d_3085_1718)">
<path d="M32.1113 189.065C32.1113 184.386 35.9047 180.593 40.5841 180.593H175.639C180.318 180.593 184.111 184.386 184.111 189.065V222.015C184.111 226.694 180.318 230.487 175.639 230.487H40.5841C35.9047 230.487 32.1113 226.694 32.1113 222.015V189.065Z" fill="white"/>
<path d="M40.584 180.847H175.639C180.178 180.847 183.857 184.526 183.857 189.065V222.015C183.857 226.554 180.178 230.233 175.639 230.233H40.584C36.0451 230.233 32.3653 226.554 32.3652 222.015V189.065C32.3653 184.526 36.0451 180.847 40.584 180.847Z" stroke="#F1F1F1" stroke-width="0.508364"/>
</g>
<rect x="83.1113" y="194.593" width="60" height="8" fill="#F5F1FA"/>
<rect x="46.1113" y="191.593" width="29" height="28" rx="14" fill="#F5F1FA"/>
<rect x="83.1113" y="209.593" width="42.9015" height="6.83938" fill="#F5F1FA"/>
<defs>
<filter id="filter0_d_3085_1718" x="100.397" y="287.409" width="76.2659" height="76.2634" filterUnits="userSpaceOnUse" color-interpolation-filters="sRGB">
<feFlood flood-opacity="0" result="BackgroundImageFix"/>
<feColorMatrix in="SourceAlpha" type="matrix" values="0 0 0 0 0 0 0 0 0 0 0 0 0 0 0 0 0 0 127 0" result="hardAlpha"/>
<feOffset dy="2.53005"/>
<feGaussianBlur stdDeviation="6.35676"/>
<feComposite in2="hardAlpha" operator="out"/>
<feColorMatrix type="matrix" values="0 0 0 0 0 0 0 0 0 0 0 0 0 0 0 0 0 0 0.06 0"/>
<feBlend mode="normal" in2="BackgroundImageFix" result="effect1_dropShadow_3085_1718"/>
<feBlend mode="normal" in="SourceGraphic" in2="effect1_dropShadow_3085_1718" result="shape"/>
</filter>
<filter id="filter1_f_3085_1718" x="114.319" y="298.801" width="48.4241" height="48.4227" filterUnits="userSpaceOnUse" color-interpolation-filters="sRGB">
<feFlood flood-opacity="0" result="BackgroundImageFix"/>
<feBlend mode="normal" in="SourceGraphic" in2="BackgroundImageFix" result="shape"/>
<feGaussianBlur stdDeviation="1.89754" result="effect1_foregroundBlur_3085_1718"/>
</filter>
<filter id="filter2_d_3085_1718" x="383.398" y="165.409" width="76.2649" height="76.2634" filterUnits="userSpaceOnUse" color-interpolation-filters="sRGB">
<feFlood flood-opacity="0" result="BackgroundImageFix"/>
<feColorMatrix in="SourceAlpha" type="matrix" values="0 0 0 0 0 0 0 0 0 0 0 0 0 0 0 0 0 0 127 0" result="hardAlpha"/>
<feOffset dy="2.53005"/>
<feGaussianBlur stdDeviation="6.35676"/>
<feComposite in2="hardAlpha" operator="out"/>
<feColorMatrix type="matrix" values="0 0 0 0 0 0 0 0 0 0 0 0 0 0 0 0 0 0 0.06 0"/>
<feBlend mode="normal" in2="BackgroundImageFix" result="effect1_dropShadow_3085_1718"/>
<feBlend mode="normal" in="SourceGraphic" in2="effect1_dropShadow_3085_1718" result="shape"/>
</filter>
<filter id="filter3_f_3085_1718" x="397.32" y="176.801" width="48.4241" height="48.4227" filterUnits="userSpaceOnUse" color-interpolation-filters="sRGB">
<feFlood flood-opacity="0" result="BackgroundImageFix"/>
<feBlend mode="normal" in="SourceGraphic" in2="BackgroundImageFix" result="shape"/>
<feGaussianBlur stdDeviation="1.89754" result="effect1_foregroundBlur_3085_1718"/>
</filter>
<filter id="filter4_d_3085_1718" x="315" y="258.496" width="216.223" height="114.118" filterUnits="userSpaceOnUse" color-interpolation-filters="sRGB">
<feFlood flood-opacity="0" result="BackgroundImageFix"/>
<feColorMatrix in="SourceAlpha" type="matrix" values="0 0 0 0 0 0 0 0 0 0 0 0 0 0 0 0 0 0 127 0" result="hardAlpha"/>
<feOffset dy="11.0145"/>
<feGaussianBlur stdDeviation="16.0558"/>
<feComposite in2="hardAlpha" operator="out"/>
<feColorMatrix type="matrix" values="0 0 0 0 0.0509804 0 0 0 0 0.0392157 0 0 0 0 0.172549 0 0 0 0.18 0"/>
<feBlend mode="normal" in2="BackgroundImageFix" result="effect1_dropShadow_3085_1718"/>
<feBlend mode="normal" in="SourceGraphic" in2="effect1_dropShadow_3085_1718" result="shape"/>
</filter>
<filter id="filter5_d_3085_1718" x="-0.000312805" y="159.496" width="216.223" height="114.118" filterUnits="userSpaceOnUse" color-interpolation-filters="sRGB">
<feFlood flood-opacity="0" result="BackgroundImageFix"/>
<feColorMatrix in="SourceAlpha" type="matrix" values="0 0 0 0 0 0 0 0 0 0 0 0 0 0 0 0 0 0 127 0" result="hardAlpha"/>
<feOffset dy="11.0145"/>
<feGaussianBlur stdDeviation="16.0558"/>
<feComposite in2="hardAlpha" operator="out"/>
<feColorMatrix type="matrix" values="0 0 0 0 0.0509804 0 0 0 0 0.0392157 0 0 0 0 0.172549 0 0 0 0.18 0"/>
<feBlend mode="normal" in2="BackgroundImageFix" result="effect1_dropShadow_3085_1718"/>
<feBlend mode="normal" in="SourceGraphic" in2="effect1_dropShadow_3085_1718" result="shape"/>
</filter>
<linearGradient id="paint0_linear_3085_1718" x1="276.18" y1="157.593" x2="276.18" y2="454.138" gradientUnits="userSpaceOnUse">
<stop stop-color="#F6E6F5"/>
<stop offset="1" stop-color="white"/>
</linearGradient>
<linearGradient id="paint1_linear_3085_1718" x1="159.119" y1="302.219" x2="121.094" y2="342.634" gradientUnits="userSpaceOnUse">
<stop stop-color="white" stop-opacity="0.867"/>
<stop offset="1" stop-color="white" stop-opacity="0"/>
</linearGradient>
<linearGradient id="paint2_linear_3085_1718" x1="442.119" y1="180.219" x2="404.094" y2="220.635" gradientUnits="userSpaceOnUse">
<stop stop-color="white" stop-opacity="0.867"/>
<stop offset="1" stop-color="white" stop-opacity="0"/>
</linearGradient>
<clipPath id="clip0_3085_1718">
<rect width="287.225" height="355.855" fill="white" transform="translate(129.603 71.1709)"/>
</clipPath>
<clipPath id="clip1_3085_1718">
<rect width="240.346" height="465.678" fill="white" transform="translate(155.868 83.0327)"/>
</clipPath>
</defs>
</svg>
