<svg width="170" height="49" viewBox="0 0 170 49" fill="none" xmlns="http://www.w3.org/2000/svg">
<path d="M38.1045 24C37.5424 16.0451 30.8025 9.94192 22.8295 9.94192H12.03C11.4045 9.94192 10.8265 10.2391 10.4607 10.7266C10.2674 10.9847 10.0727 11.2432 9.87289 11.4966C9.8403 11.5438 9.80471 11.5893 9.76569 11.6313C9.76226 11.636 9.75926 11.6394 9.75412 11.6441C9.46984 11.9593 9.05865 12.1591 8.60072 12.1591C8.03689 12.1591 7.54166 11.8555 7.27025 11.4019C7.26682 11.3955 7.26381 11.392 7.2621 11.3856C7.23937 11.3466 7.21836 11.3076 7.19864 11.2668C7.19693 11.2634 7.19693 11.2621 7.19521 11.2604L5.85659 8.7538L2.76686 3.1609C2.98125 3.00483 3.16004 2.80202 3.28653 2.5662C3.41173 2.3308 3.48634 2.06282 3.49106 1.77854C3.50735 0.852398 2.77158 0.0518816 1.84543 0.00300171C1.67478 -0.00686003 1.50584 0.00943352 1.34677 0.0454503L1.32576 0V0.0501662C0.945441 0.146211 0.612714 0.365314 0.37689 0.662452C0.141065 0.959591 0 1.33648 0 1.74596C0 2.15543 0.141494 2.53232 0.378604 2.82946C0.614 3.1266 0.945441 3.34613 1.32576 3.44046V26.2284C1.32576 33.9317 7.6287 40.2329 15.332 40.2329H22.9963C27.1614 40.2329 30.9479 38.529 33.6933 35.7853C36.6758 32.7997 38.4286 28.5905 38.1036 23.9996L38.1045 24ZM34.0419 25.0866C34.0419 30.5594 29.5651 35.0362 24.0922 35.0362H15.1918C9.71896 35.0362 5.24216 30.5594 5.24216 25.0866C5.24216 19.6137 9.71896 15.1369 15.1918 15.1369H24.0922C29.5651 15.1352 34.0419 19.6137 34.0419 25.0866Z" fill="url(#paint0_linear_802_3496)"/>
<path d="M23.9409 27.5461C25.2992 27.5461 26.4003 26.4449 26.4003 25.0866C26.4003 23.7283 25.2992 22.6272 23.9409 22.6272C22.5826 22.6272 21.4814 23.7283 21.4814 25.0866C21.4814 26.4449 22.5826 27.5461 23.9409 27.5461Z" fill="#4D3A9A"/>
<path d="M15.3413 27.5461C16.6996 27.5461 17.8007 26.4449 17.8007 25.0866C17.8007 23.7283 16.6996 22.6272 15.3413 22.6272C13.983 22.6272 12.8818 23.7283 12.8818 25.0866C12.8818 26.4449 13.983 27.5461 15.3413 27.5461Z" fill="#4D3A9A"/>
<path d="M61.8493 26.6104C61.8493 30.3321 58.953 33.3485 55.3809 33.3485C54.1477 33.3485 52.996 32.9896 52.0167 32.3675C51.7698 32.9442 51.1965 33.3485 50.5289 33.3485C49.6353 33.3485 48.9111 32.6239 48.9111 31.7308V16.6363C48.9111 15.7427 49.6358 15.0186 50.5289 15.0186C51.422 15.0186 52.1466 15.7432 52.1466 16.6363V20.7722C53.0985 20.199 54.203 19.8705 55.3809 19.8705C58.953 19.8705 61.8493 22.8887 61.8493 26.6104ZM58.6134 26.6104C58.6134 24.6758 57.1646 23.1065 55.3792 23.1065C53.5937 23.1065 52.1449 24.6758 52.1449 26.6104C52.1449 28.545 53.5925 30.1143 55.3792 30.1143C57.1658 30.1143 58.6134 28.545 58.6134 26.6104Z" fill="#4D3A9A"/>
<path d="M63.4639 26.6105C63.4639 22.8887 66.3602 19.8723 69.9323 19.8723C73.5044 19.8723 76.4008 22.8892 76.4008 26.6105C76.4008 30.3318 73.5044 33.3486 69.9323 33.3486C66.3602 33.3486 63.4639 30.3318 63.4639 26.6105ZM73.1682 26.6105C73.1682 24.6758 71.7207 23.1065 69.934 23.1065C68.1473 23.1065 66.6998 24.6758 66.6998 26.6105C66.6998 28.5451 68.1486 30.1144 69.934 30.1144C71.7194 30.1144 73.1682 28.5451 73.1682 26.6105Z" fill="#4D3A9A"/>
<path d="M87.7987 32.5673C87.0432 33.0788 86.1548 33.3485 85.2646 33.3485C82.7306 33.3485 80.6819 31.2467 80.6819 28.6848V23.1064H79.3678C78.4742 23.1064 77.75 22.3818 77.75 21.4887C77.75 20.5956 78.4746 19.8709 79.3678 19.8709H80.6819V17.1761C80.6819 16.2877 81.4096 15.5583 82.2997 15.5583C83.1898 15.5583 83.9174 16.286 83.9174 17.1761V19.8709H86.4579C87.3515 19.8709 88.0757 20.5956 88.0757 21.4887C88.0757 22.3818 87.351 23.1064 86.4579 23.1064H83.9157V28.6865C83.9157 29.4677 84.5087 30.1143 85.2642 30.1143C85.5065 30.1143 85.7757 30.0332 85.9918 29.8982C86.7195 29.3867 87.7172 29.5749 88.2287 30.3287C88.7145 31.058 88.5259 32.0815 87.7983 32.5673H87.7987Z" fill="#4D3A9A"/>
<path d="M90.2588 16.7709C90.2588 15.8027 91.0434 15.0181 92.0116 15.0181C92.9798 15.0181 93.7644 15.8027 93.7644 16.7709C93.7644 17.7391 92.9798 18.5237 92.0116 18.5237C91.0434 18.5237 90.2588 17.7391 90.2588 16.7709ZM90.3934 31.7307V21.4887C90.3934 20.5951 91.1181 19.8709 92.0112 19.8709C92.9043 19.8709 93.6289 20.5955 93.6289 21.4887V31.7307C93.6289 32.6243 92.9043 33.3485 92.0112 33.3485C91.1181 33.3485 90.3934 32.6238 90.3934 31.7307Z" fill="#4D3A9A"/>
<path d="M96.376 31.6916C96.1419 31.5064 96.1046 31.1668 96.2898 30.9344C96.475 30.7003 96.8146 30.6617 97.0466 30.8465C98.1172 31.7028 99.7106 32.2126 101.145 32.2645C103.231 32.3408 105.229 31.5236 105.276 29.7159C105.33 27.6578 103.694 27.3992 101.138 27.1475C98.0787 26.8452 95.9524 26.3059 96.0253 23.4777C96.0904 21.0002 98.5739 19.7821 101.282 19.8764C102.931 19.9347 104.757 20.5359 106.003 21.5319C106.237 21.7171 106.275 22.0567 106.091 22.2891C105.905 22.5232 105.566 22.5618 105.334 22.377C104.26 21.5195 102.707 21.0157 101.282 20.9574C99.1789 20.8729 97.1499 21.6948 97.1028 23.5077C97.0492 25.5658 98.6849 25.8243 101.242 26.076C104.301 26.3783 106.427 26.916 106.354 29.7459C106.289 32.2328 103.825 33.4235 101.144 33.3441C99.4679 33.294 97.6276 32.6911 96.3764 31.6921L96.376 31.6916Z" fill="#4D3A9A"/>
<path d="M108.719 26.6105C108.719 22.9247 111.605 19.8723 115.261 19.8723C116.908 19.8723 118.482 20.506 119.692 21.6543C119.908 21.8588 119.916 22.2001 119.711 22.4162C119.507 22.6323 119.165 22.6405 118.949 22.4355C117.94 21.4772 116.63 20.949 115.26 20.949C112.247 20.949 109.797 23.4881 109.797 26.61C109.797 29.7319 112.248 32.2711 115.26 32.2711C116.63 32.2711 117.94 31.7433 118.949 30.7845C119.165 30.58 119.507 30.5882 119.711 30.8038C119.916 31.0199 119.908 31.3612 119.692 31.5658C118.481 32.7144 116.907 33.3477 115.261 33.3477C111.615 33.3477 108.719 30.3035 108.719 26.6096V26.6105Z" fill="#4D3A9A"/>
<path d="M135.43 26.6103V32.8091C135.43 33.1062 135.187 33.3485 134.89 33.3485C134.593 33.3485 134.351 33.1062 134.351 32.8091V26.6103C134.351 23.4833 131.937 20.9493 128.959 20.9493C125.982 20.9493 123.568 23.4833 123.568 26.6103V32.8091C123.568 33.1062 123.326 33.3485 123.029 33.3485C122.732 33.3485 122.489 33.1062 122.489 32.8091V15.5575C122.489 15.2603 122.73 15.0181 123.029 15.0181C123.327 15.0181 123.568 15.2603 123.568 15.5575V22.8822C124.726 21.0659 126.708 19.8705 128.959 19.8705C132.533 19.8705 135.43 22.8886 135.43 26.6103Z" fill="#4D3A9A"/>
<path d="M137.799 26.6105C137.799 22.8887 140.695 19.8723 144.267 19.8723C147.839 19.8723 150.736 22.8892 150.736 26.6105C150.736 30.3318 147.839 33.3486 144.267 33.3486C140.695 33.3486 137.799 30.3318 137.799 26.6105ZM149.659 26.6105C149.659 23.4834 147.245 20.9494 144.268 20.9494C141.29 20.9494 138.876 23.4834 138.876 26.6105C138.876 29.7375 141.29 32.2715 144.268 32.2715C147.245 32.2715 149.659 29.7358 149.659 26.6105Z" fill="#4D3A9A"/>
<path d="M152.841 26.6105C152.841 22.8887 155.737 19.8723 159.309 19.8723C162.881 19.8723 165.778 22.8892 165.778 26.6105C165.778 30.3318 162.881 33.3486 159.309 33.3486C155.737 33.3486 152.841 30.3318 152.841 26.6105ZM164.701 26.6105C164.701 23.4834 162.287 20.9494 159.31 20.9494C156.332 20.9494 153.918 23.4834 153.918 26.6105C153.918 29.7375 156.332 32.2715 159.31 32.2715C162.287 32.2715 164.701 29.7358 164.701 26.6105Z" fill="#4D3A9A"/>
<path d="M168.151 32.8091V15.5575C168.151 15.2603 168.394 15.0181 168.691 15.0181C168.988 15.0181 169.23 15.2603 169.23 15.5575V32.8091C169.23 33.1062 168.99 33.3485 168.691 33.3485C168.394 33.3485 168.151 33.1079 168.151 32.8091Z" fill="#4D3A9A"/>
<path d="M76.4697 33.3956C76.0782 32.996 75.4514 32.9471 75.0046 33.285C74.0218 34.0289 72.2673 35.0297 69.9348 35.0297C67.6023 35.0297 65.846 34.0289 64.865 33.285C64.4199 32.9471 63.7931 32.9973 63.4012 33.3956C62.9317 33.8733 62.9853 34.6562 63.5182 35.0623C64.805 36.0433 66.9913 37.2567 69.9365 37.2567C72.8817 37.2567 75.068 36.0433 76.3548 35.0623C76.886 34.6562 76.9396 33.875 76.4701 33.3956H76.4697Z" fill="url(#paint1_linear_802_3496)"/>
<path d="M96.2188 41.1779C96.2188 40.9686 96.3898 40.7971 96.5896 40.7971H98.5307C100.624 40.7971 102.071 42.2339 102.071 44.1085V44.1274C102.071 46.002 100.624 47.4581 98.5307 47.4581H96.5896C96.3898 47.4581 96.2188 47.2866 96.2188 47.0773V41.1774V41.1779ZM98.5311 46.7639C100.215 46.7639 101.291 45.6221 101.291 44.1471V44.1282C101.291 42.6533 100.215 41.4926 98.5311 41.4926H96.9704V46.7643H98.5311V46.7639Z" fill="#4D3A9A"/>
<path d="M103.537 40.9975C103.537 40.7595 103.727 40.6073 103.965 40.6073C104.203 40.6073 104.403 40.7595 104.403 40.9975V41.121C104.403 41.3495 104.213 41.5112 103.965 41.5112C103.718 41.5112 103.537 41.3495 103.537 41.121V40.9975ZM103.604 42.8626C103.604 42.6628 103.765 42.4913 103.965 42.4913C104.165 42.4913 104.336 42.653 104.336 42.8626V47.1353C104.336 47.3446 104.184 47.5062 103.974 47.5062C103.765 47.5062 103.604 47.3446 103.604 47.1353V42.8626Z" fill="#4D3A9A"/>
<path d="M106.163 48.4195C106.049 48.3625 105.973 48.2484 105.973 48.1151C105.973 47.9534 106.135 47.7913 106.306 47.7913C106.373 47.7913 106.42 47.8102 106.468 47.8389C106.981 48.1815 107.571 48.3719 108.209 48.3719C109.294 48.3719 109.998 47.7725 109.998 46.6208V46.0402C109.57 46.6114 108.97 47.0774 108.066 47.0774C106.886 47.0774 105.754 46.1924 105.754 44.7745V44.7556C105.754 43.3188 106.896 42.4338 108.066 42.4338C108.989 42.4338 109.589 42.8909 109.988 43.4234V42.8622C109.988 42.6624 110.141 42.4909 110.35 42.4909C110.56 42.4909 110.721 42.6624 110.721 42.8622V46.6019C110.721 47.3634 110.493 47.9435 110.093 48.3436C109.655 48.7814 108.999 49 108.218 49C107.438 49 106.782 48.8002 106.163 48.4195H106.163ZM110.017 44.7655V44.7466C110.017 43.7382 109.142 43.0813 108.209 43.0813C107.276 43.0813 106.506 43.7283 106.506 44.7372V44.7561C106.506 45.7457 107.295 46.4308 108.209 46.4308C109.123 46.4308 110.017 45.7551 110.017 44.7655Z" fill="#4D3A9A"/>
<path d="M112.358 40.9975C112.358 40.7595 112.549 40.6073 112.787 40.6073C113.025 40.6073 113.225 40.7595 113.225 40.9975V41.121C113.225 41.3495 113.034 41.5112 112.787 41.5112C112.539 41.5112 112.358 41.3495 112.358 41.121V40.9975ZM112.425 42.8626C112.425 42.6628 112.587 42.4913 112.786 42.4913C112.986 42.4913 113.158 42.653 113.158 42.8626V47.1353C113.158 47.3446 113.005 47.5062 112.796 47.5062C112.586 47.5062 112.425 47.3446 112.425 47.1353V42.8626Z" fill="#4D3A9A"/>
<path d="M115.119 46.1547V43.1858H114.719C114.548 43.1858 114.396 43.0336 114.396 42.8626C114.396 42.6816 114.548 42.5388 114.719 42.5388H115.119V41.3777C115.119 41.1779 115.271 41.0068 115.48 41.0068C115.69 41.0068 115.852 41.1779 115.852 41.3777V42.5388H117.127C117.307 42.5388 117.46 42.6911 117.46 42.8626C117.46 43.0431 117.308 43.1858 117.127 43.1858H115.852V46.0595C115.852 46.6589 116.185 46.878 116.68 46.878C116.936 46.878 117.07 46.8115 117.127 46.8115C117.298 46.8115 117.441 46.9543 117.441 47.1258C117.441 47.2587 117.355 47.3638 117.231 47.4114C117.022 47.4971 116.794 47.5447 116.508 47.5447C115.718 47.5447 115.119 47.1546 115.119 46.1555V46.1547Z" fill="#4D3A9A"/>
<path d="M118.335 46.0312V46.0124C118.335 44.9752 119.192 44.4233 120.438 44.4233C121.066 44.4233 121.513 44.5091 121.951 44.6326V44.4611C121.951 43.5761 121.409 43.1194 120.486 43.1194C119.991 43.1194 119.572 43.2335 119.211 43.3956C119.163 43.4144 119.115 43.4243 119.077 43.4243C118.906 43.4243 118.753 43.2815 118.753 43.11C118.753 42.9578 118.858 42.8437 118.953 42.8056C119.439 42.5963 119.933 42.4724 120.562 42.4724C121.256 42.4724 121.789 42.6534 122.151 43.0148C122.484 43.348 122.655 43.8239 122.655 44.4516V47.1447C122.655 47.354 122.503 47.5062 122.303 47.5062C122.103 47.5062 121.951 47.354 121.951 47.1636V46.7164C121.609 47.1636 121.038 47.5632 120.172 47.5632C119.258 47.5632 118.335 47.0397 118.335 46.0312H118.335ZM121.96 45.6505V45.1745C121.599 45.0699 121.113 44.9653 120.514 44.9653C119.59 44.9653 119.077 45.3649 119.077 45.9836V46.0025C119.077 46.6212 119.648 46.9827 120.314 46.9827C121.218 46.9827 121.96 46.4308 121.96 45.6505H121.96Z" fill="#4D3A9A"/>
<path d="M124.283 40.8353C124.283 40.6355 124.445 40.464 124.645 40.464C124.845 40.464 125.016 40.6355 125.016 40.8353V47.1348C125.016 47.3441 124.864 47.5057 124.655 47.5057C124.445 47.5057 124.283 47.3441 124.283 47.1348V40.8353Z" fill="#4D3A9A"/>
<path d="M129.697 47.0778V41.1779C129.697 40.9686 129.869 40.7971 130.069 40.7971H134.208C134.398 40.7971 134.551 40.9493 134.551 41.1397C134.551 41.3301 134.398 41.4823 134.208 41.4823H130.449V43.7565H133.78C133.97 43.7565 134.122 43.9181 134.122 44.0991C134.122 44.2895 133.97 44.4417 133.78 44.4417H130.449V46.7729H134.256C134.446 46.7729 134.598 46.9251 134.598 47.1155C134.598 47.3059 134.446 47.4581 134.256 47.4581H130.069C129.869 47.4581 129.697 47.2866 129.697 47.0773V47.0778Z" fill="#4D3A9A"/>
<path d="M135.95 42.8625C135.95 42.6627 136.112 42.4912 136.312 42.4912C136.512 42.4912 136.683 42.6529 136.683 42.8625V43.3955C137.007 42.8625 137.52 42.4342 138.367 42.4342C139.557 42.4342 140.251 43.2334 140.251 44.404V47.1352C140.251 47.3445 140.09 47.5061 139.89 47.5061C139.69 47.5061 139.519 47.3445 139.519 47.1352V44.5849C139.519 43.6712 139.024 43.1005 138.158 43.1005C137.292 43.1005 136.683 43.7192 136.683 44.6424V47.1357C136.683 47.3449 136.531 47.5066 136.322 47.5066C136.112 47.5066 135.95 47.3449 135.95 47.1357V42.863V42.8625Z" fill="#4D3A9A"/>
<path d="M141.442 46.0312V46.0124C141.442 44.9752 142.299 44.4233 143.545 44.4233C144.173 44.4233 144.621 44.5091 145.059 44.6326V44.4611C145.059 43.5761 144.516 43.1194 143.593 43.1194C143.098 43.1194 142.68 43.2335 142.318 43.3956C142.27 43.4144 142.223 43.4243 142.185 43.4243C142.013 43.4243 141.861 43.2815 141.861 43.11C141.861 42.9578 141.965 42.8437 142.061 42.8056C142.546 42.5963 143.041 42.4724 143.669 42.4724C144.364 42.4724 144.897 42.6534 145.258 43.0148C145.591 43.348 145.763 43.8239 145.763 44.4516V47.1447C145.763 47.354 145.61 47.5062 145.411 47.5062C145.211 47.5062 145.059 47.354 145.059 47.1636V46.7164C144.716 47.1636 144.145 47.5632 143.279 47.5632C142.366 47.5632 141.443 47.0397 141.443 46.0312H141.442ZM145.068 45.6505V45.1745C144.706 45.0699 144.221 44.9653 143.621 44.9653C142.698 44.9653 142.185 45.3649 142.185 45.9836V46.0025C142.185 46.6212 142.756 46.9827 143.422 46.9827C144.325 46.9827 145.068 46.4308 145.068 45.6505H145.068Z" fill="#4D3A9A"/>
<path d="M147.322 40.8353C147.322 40.6261 147.484 40.464 147.684 40.464C147.884 40.464 148.055 40.6256 148.055 40.8353V43.528C148.454 42.938 149.035 42.4338 149.939 42.4338C151.119 42.4338 152.289 43.3663 152.289 44.9841V45.003C152.289 46.6113 151.128 47.5627 149.939 47.5627C149.025 47.5627 148.435 47.0679 148.055 46.5161V47.1348C148.055 47.3346 147.902 47.5057 147.693 47.5057C147.484 47.5057 147.322 47.3342 147.322 47.1348V40.8353ZM151.538 45.0128V44.994C151.538 43.8328 150.738 43.0906 149.806 43.0906C148.873 43.0906 148.026 43.8616 148.026 44.9845V45.0034C148.026 46.1452 148.892 46.9067 149.806 46.9067C150.719 46.9067 151.538 46.2027 151.538 45.0128Z" fill="#4D3A9A"/>
<path d="M153.709 40.8353C153.709 40.6355 153.871 40.464 154.07 40.464C154.27 40.464 154.441 40.6355 154.441 40.8353V47.1348C154.441 47.3441 154.289 47.5057 154.08 47.5057C153.871 47.5057 153.709 47.3441 153.709 47.1348V40.8353Z" fill="#4D3A9A"/>
<path d="M158.295 47.5726C156.944 47.5726 155.84 46.5354 155.84 45.0128V44.994C155.84 43.576 156.839 42.4342 158.2 42.4342C159.656 42.4342 160.484 43.6236 160.484 44.9275C160.484 45.1273 160.322 45.2701 160.141 45.2701H156.582C156.687 46.336 157.439 46.9354 158.314 46.9354C158.923 46.9354 159.37 46.6975 159.732 46.3643C159.789 46.3167 159.856 46.2786 159.941 46.2786C160.122 46.2786 160.265 46.4213 160.265 46.5924C160.265 46.6782 160.227 46.7639 160.151 46.8304C159.685 47.2776 159.133 47.5726 158.295 47.5726H158.295ZM159.751 44.7273C159.675 43.8329 159.161 43.0525 158.181 43.0525C157.325 43.0525 156.678 43.7664 156.582 44.7273H159.751Z" fill="#4D3A9A"/>
<path d="M161.778 42.8626C161.778 42.6628 161.94 42.4913 162.14 42.4913C162.34 42.4913 162.511 42.6529 162.511 42.8626V43.7857C162.873 42.9672 163.586 42.4724 164.205 42.4724C164.423 42.4724 164.566 42.6341 164.566 42.8437C164.566 43.0534 164.433 43.1863 164.243 43.2146C163.291 43.3287 162.511 44.0426 162.511 45.4601V47.1349C162.511 47.3347 162.359 47.5058 162.15 47.5058C161.94 47.5058 161.779 47.3441 161.779 47.1349V42.8622L161.778 42.8626Z" fill="#4D3A9A"/>
<path d="M165.366 46.935C165.299 46.8874 165.232 46.7922 165.232 46.6683C165.232 46.4972 165.375 46.3545 165.556 46.3545C165.623 46.3545 165.689 46.3733 165.737 46.4115C166.241 46.7541 166.764 46.935 167.297 46.935C167.887 46.935 168.316 46.6306 168.316 46.1546V46.1358C168.316 45.641 167.735 45.4506 167.088 45.2701C166.318 45.051 165.461 44.7847 165.461 43.8809V43.862C165.461 43.0152 166.165 42.4535 167.136 42.4535C167.659 42.4535 168.23 42.6151 168.706 42.8724C168.801 42.9294 168.886 43.034 168.886 43.1768C168.886 43.3483 168.744 43.4911 168.563 43.4911C168.497 43.4911 168.439 43.4722 168.401 43.453C167.983 43.215 167.536 43.0722 167.117 43.0722C166.536 43.0722 166.165 43.3766 166.165 43.7861V43.805C166.165 44.2711 166.774 44.452 167.431 44.6518C168.192 44.8799 169.011 45.1753 169.011 46.0599V46.0788C169.011 47.0113 168.24 47.5537 167.26 47.5537C166.613 47.5537 165.899 47.3158 165.366 46.935Z" fill="#4D3A9A"/>
<defs>
<linearGradient id="paint0_linear_802_3496" x1="0.00128631" y1="20.1167" x2="38.1431" y2="20.1167" gradientUnits="userSpaceOnUse">
<stop stop-color="#EF762E"/>
<stop offset="1" stop-color="#E82787"/>
</linearGradient>
<linearGradient id="paint1_linear_802_3496" x1="63.0805" y1="35.1588" x2="76.79" y2="35.1588" gradientUnits="userSpaceOnUse">
<stop stop-color="#EF762E"/>
<stop offset="1" stop-color="#E82787"/>
</linearGradient>
</defs>
</svg>
