<svg width="97" height="26" viewBox="0 0 97 26" fill="none" xmlns="http://www.w3.org/2000/svg">
<g clip-path="url(#clip0_802_3329)">
<path d="M93.6865 3.84021C95.071 3.84021 96.0922 4.86285 96.0922 6.17099C96.0922 7.47913 95.0734 8.49007 93.6865 8.49007C92.2996 8.49007 91.293 7.47913 91.293 6.17099C91.293 4.86285 92.3118 3.84021 93.6865 3.84021ZM95.6023 6.17099C95.6023 5.07346 94.7833 4.24505 93.6841 4.24505C92.5848 4.24505 91.778 5.0758 91.778 6.17099C91.778 7.26617 92.5872 8.08522 93.6841 8.08522C94.7809 8.08522 95.6023 7.26617 95.6023 6.17099ZM93.3526 7.28957H92.731V4.89327H93.8498C94.2837 4.89327 94.7248 5.09686 94.7248 5.61872C94.7248 6.0025 94.4494 6.20375 94.2154 6.27863L94.759 7.28957H94.0716L93.6183 6.37458H93.3526V7.28957ZM93.6646 5.94634C93.9083 5.94634 94.0862 5.84103 94.0862 5.59531C94.0862 5.39406 93.9205 5.28642 93.6768 5.28642H93.355V5.94634H93.6646Z" fill="#958DB4"/>
<path d="M37.5699 5.95569H49.7033V8.63515L42.4422 16.8514H49.8373L47.8679 19.8936H37.2969V17.1884L44.5555 8.94639H37.5699V5.95569Z" fill="#958DB4"/>
<path d="M49.0254 12.9246C49.0254 8.34725 51.843 5.61865 56.3937 5.61865C60.9443 5.61865 63.7327 8.32385 63.7327 12.9246C63.7327 17.5253 60.7274 20.2586 56.3644 20.2586C51.787 20.2586 49.0254 17.4761 49.0254 12.9246ZM53.4663 12.9246C53.4663 15.6298 54.278 17.4761 56.3912 17.4761C58.5045 17.4761 59.2625 15.4987 59.2625 12.9246C59.2625 10.3504 58.5045 8.40108 56.3912 8.40108C54.2512 8.39874 53.4663 10.3504 53.4663 12.9246Z" fill="#958DB4"/>
<path d="M73.293 11.7544C73.293 10.7669 73.2393 9.95952 72.8591 9.44001C72.4521 8.89475 71.8013 8.635 70.9896 8.635C69.0665 8.635 68.0647 9.80507 68.0647 11.834V19.8957H63.7578V5.95554H67.9014V8.2442H67.955C68.7399 6.84011 70.1755 5.67004 72.6665 5.67004C76.1593 5.67004 77.595 7.41111 77.595 10.8441V19.8934L73.2881 18.0026V11.7544H73.293Z" fill="#958DB4"/>
<path d="M84.7758 20.2586C80.0911 20.2586 77.5977 17.3732 77.5977 12.9012C77.5977 8.42916 80.252 5.61865 84.8294 5.61865C89.7311 5.61865 91.7907 8.71232 91.7907 12.7959V13.8887H81.9314C82.1215 16.3856 83.0964 17.4785 84.9099 17.4785C86.6161 17.4785 87.1572 16.6711 87.4277 15.8404H91.6517C91.2203 18.5409 88.7025 20.2586 84.7758 20.2586ZM87.4033 11.338C87.2669 9.36287 86.4552 8.1928 84.8294 8.1928C83.0696 8.1928 82.1483 9.38862 81.9314 11.5205H87.4033V11.338Z" fill="#958DB4"/>
<path d="M4.44096 13.0814V18.0027L0 19.8935V0H7.20498C11.6996 0 15.1119 1.82063 15.1119 6.42368C15.1119 11.2607 11.4558 13.0814 6.82474 13.0814H4.44096ZM7.12454 9.93389C9.42545 9.93389 10.7538 8.78956 10.7538 6.47516C10.7538 4.02972 9.42789 3.06792 7.1806 3.06792H4.44096V9.93389H7.12454Z" fill="#958DB4"/>
<path d="M14.2734 10.0905C14.4367 7.30813 16.7376 5.64429 20.5302 5.64429C25.2149 5.64429 26.8407 7.49066 26.8407 11.2091V16.0181C26.8407 16.7716 27.0844 17.0571 28.0058 17.0571L26.0363 19.9168H26.5701C24.4861 19.9168 23.4844 19.526 23.0237 17.9932H22.9701C22.0487 19.2943 20.6399 20.0478 18.5827 20.0478C15.5482 20.0478 13.6543 18.5127 13.6543 15.9128C13.6543 14.3005 14.4123 13.1561 15.848 12.4283C17.3908 11.6491 19.5869 11.518 22.6727 11.3893V10.6358C22.6727 9.10067 21.9951 8.29566 20.5327 8.29566C19.0702 8.29566 18.4462 9.04919 18.3926 10.0905H14.2734ZM22.6971 14.015V13.5727C20.423 13.7037 19.2847 13.8863 18.6071 14.3262C18.1196 14.6374 17.9027 15.1593 17.9027 15.7303C17.9027 16.7459 18.6339 17.4456 19.8258 17.4456C21.3151 17.4479 22.6971 16.3317 22.6971 14.015Z" fill="#958DB4"/>
<path d="M34.5132 19.9708L34.6205 20.3078C35.0275 21.5551 35.7855 21.9973 37.4113 21.9973C38.0328 21.9973 40.597 21.9201 40.8432 21.8686L38.8737 24.8851C38.7933 24.9108 38.1425 25.0676 36.7337 25.0676C32.9703 25.0676 31.5615 23.5863 30.3964 20.3358L25.3047 5.95569H29.5019L31.7492 13.2873C32.2099 14.7967 32.3707 16.0183 32.3707 16.0183H32.4512C32.4512 16.0183 32.6145 14.7967 33.102 13.2873L35.4857 5.95569H39.9267L34.5132 19.9708Z" fill="#958DB4"/>
</g>
<defs>
<clipPath id="clip0_802_3329">
<rect width="96.0923" height="25.0676" fill="white"/>
</clipPath>
</defs>
</svg>
