<?xml version="1.0" encoding="UTF-8"?>
<svg xmlns="http://www.w3.org/2000/svg" xmlns:xlink="http://www.w3.org/1999/xlink" width="120px" height="px" viewBox="0 0 119 34" version="1.1">
<g id="surface1">
<path style=" stroke:none;fill-rule:nonzero;fill:rgb(94.117647%,1.568628%,49.803922%);fill-opacity:1;" d="M 115.011719 5.40625 C 116.707031 5.40625 117.957031 6.730469 117.957031 8.421875 C 117.957031 10.117188 116.710938 11.421875 115.011719 11.421875 C 113.332031 11.421875 112.082031 10.117188 112.082031 8.421875 C 112.082031 6.730469 113.332031 5.40625 115.011719 5.40625 Z M 117.359375 8.421875 C 117.359375 7.003906 116.355469 5.929688 115.011719 5.929688 C 113.667969 5.929688 112.675781 7.007812 112.675781 8.421875 C 112.675781 9.839844 113.667969 10.898438 115.011719 10.898438 C 116.355469 10.898438 117.359375 9.839844 117.359375 8.421875 Z M 114.605469 9.871094 L 113.84375 9.871094 L 113.84375 6.769531 L 115.210938 6.769531 C 115.742188 6.769531 116.285156 7.035156 116.285156 7.707031 C 116.285156 8.203125 115.945312 8.464844 115.660156 8.5625 L 116.328125 9.871094 L 115.484375 9.871094 L 114.929688 8.6875 L 114.605469 8.6875 Z M 114.988281 8.132812 C 115.285156 8.132812 115.503906 7.996094 115.503906 7.679688 C 115.503906 7.417969 115.300781 7.277344 115 7.277344 L 114.609375 7.277344 L 114.609375 8.132812 Z M 114.988281 8.132812 "/>
<path style=" stroke:none;fill-rule:nonzero;fill:rgb(94.117647%,1.568628%,49.803922%);fill-opacity:1;" d="M 46.328125 8.144531 L 61.179688 8.144531 L 61.179688 11.609375 L 52.292969 22.242188 L 61.34375 22.242188 L 58.933594 26.175781 L 45.996094 26.175781 L 45.996094 22.675781 L 54.878906 12.015625 L 46.328125 12.015625 Z M 46.328125 8.144531 "/>
<path style=" stroke:none;fill-rule:nonzero;fill:rgb(94.117647%,1.568628%,49.803922%);fill-opacity:1;" d="M 60.347656 17.160156 C 60.347656 11.238281 63.796875 7.707031 69.367188 7.707031 C 74.804688 7.707031 78.351562 11.207031 78.351562 17.160156 C 78.351562 23.050781 74.671875 26.648438 69.332031 26.648438 C 63.730469 26.648438 60.347656 23.050781 60.347656 17.160156 Z M 65.785156 17.160156 C 65.785156 20.660156 66.777344 23.050781 69.363281 23.050781 C 72.015625 23.050781 72.878906 20.492188 72.878906 17.160156 C 72.878906 13.699219 71.953125 11.308594 69.363281 11.308594 C 66.746094 11.304688 65.785156 13.832031 65.785156 17.160156 Z M 65.785156 17.160156 "/>
<path style=" stroke:none;fill-rule:nonzero;fill:rgb(94.117647%,1.568628%,49.803922%);fill-opacity:1;" d="M 90.054688 15.648438 C 90.054688 14.371094 89.988281 13.324219 89.523438 12.652344 C 89.023438 11.949219 88.226562 11.609375 87.234375 11.609375 C 84.878906 11.609375 83.652344 13.125 83.652344 15.75 L 83.652344 26.179688 L 78.382812 26.179688 L 78.382812 8.144531 L 83.453125 8.144531 L 83.453125 11.105469 L 83.519531 11.105469 C 84.480469 9.289062 86.238281 7.773438 89.285156 7.773438 C 93.5625 7.773438 95.320312 10.027344 95.320312 14.46875 L 95.320312 26.175781 L 90.046875 23.730469 L 90.046875 15.648438 Z M 90.054688 15.648438 "/>
<path style=" stroke:none;fill-rule:nonzero;fill:rgb(94.117647%,1.568628%,49.803922%);fill-opacity:1;" d="M 104.105469 26.648438 C 98.371094 26.648438 95.320312 22.917969 95.320312 17.132812 C 95.320312 11.613281 98.570312 7.707031 104.171875 7.707031 C 110.171875 7.707031 112.691406 11.710938 112.691406 16.996094 L 112.691406 18.410156 L 100.625 18.410156 C 100.855469 21.640625 102.050781 23.054688 104.269531 23.054688 C 106.359375 23.054688 107.019531 22.007812 107.351562 20.933594 L 112.523438 20.933594 C 111.996094 24.429688 108.914062 26.648438 104.105469 26.648438 Z M 107.320312 15.109375 C 107.15625 12.554688 106.160156 11.039062 104.171875 11.039062 C 102.019531 11.039062 100.890625 12.585938 100.625 15.34375 L 107.320312 15.34375 Z M 107.320312 15.109375 "/>
<path style=" stroke:none;fill-rule:nonzero;fill:rgb(16.862746%,31.764707%,87.843138%);fill-opacity:1;" d="M 5.78125 17.363281 L 5.78125 23.730469 L 0.34375 26.179688 L 0.34375 0.4375 L 9.164062 0.4375 C 14.664062 0.4375 18.839844 2.792969 18.839844 8.75 C 18.839844 15.007812 14.367188 17.363281 8.699219 17.363281 Z M 9.066406 13.292969 C 11.882812 13.292969 13.507812 11.8125 13.507812 8.816406 C 13.507812 5.652344 11.882812 4.410156 9.132812 4.410156 L 5.78125 4.410156 L 5.78125 13.292969 Z M 9.066406 13.292969 "/>
<path style=" stroke:none;fill-rule:nonzero;fill:rgb(16.862746%,31.764707%,87.843138%);fill-opacity:1;" d="M 17.8125 13.496094 C 18.015625 9.894531 20.832031 7.742188 25.472656 7.742188 C 31.207031 7.742188 33.195312 10.128906 33.195312 14.941406 L 33.195312 21.164062 C 33.195312 22.140625 33.496094 22.507812 34.621094 22.507812 L 32.210938 26.207031 L 32.863281 26.207031 C 30.3125 26.207031 29.089844 25.703125 28.523438 23.71875 L 28.457031 23.71875 C 27.332031 25.402344 25.605469 26.378906 23.089844 26.378906 C 19.375 26.378906 17.054688 24.390625 17.054688 21.027344 C 17.054688 18.941406 17.984375 17.460938 19.742188 16.519531 C 21.628906 15.511719 24.316406 15.339844 28.09375 15.175781 L 28.09375 14.199219 C 28.09375 12.214844 27.265625 11.171875 25.476562 11.171875 C 23.75 11.171875 22.921875 12.148438 22.855469 13.496094 Z M 28.125 18.570312 L 28.125 18 C 25.339844 18.167969 23.949219 18.40625 23.117188 18.976562 C 22.523438 19.378906 22.257812 20.050781 22.257812 20.792969 C 22.257812 22.105469 23.152344 23.011719 24.609375 23.011719 C 26.433594 23.015625 28.125 21.570312 28.125 18.570312 Z M 28.125 18.570312 "/>
<path style=" stroke:none;fill-rule:nonzero;fill:rgb(16.862746%,31.764707%,87.843138%);fill-opacity:1;" d="M 42.589844 26.277344 L 42.71875 26.714844 C 43.21875 28.328125 44.144531 28.898438 46.136719 28.898438 C 46.894531 28.898438 50.035156 28.800781 50.335938 28.734375 L 47.925781 32.636719 C 47.828125 32.667969 47.03125 32.871094 45.304688 32.871094 C 40.699219 32.871094 38.976562 30.957031 37.550781 26.75 L 31.316406 8.144531 L 36.453125 8.144531 L 39.203125 17.628906 C 39.769531 19.582031 39.964844 21.164062 39.964844 21.164062 L 40.0625 21.164062 C 40.0625 21.164062 40.265625 19.582031 40.859375 17.628906 L 43.777344 8.144531 L 49.214844 8.144531 Z M 42.589844 26.277344 "/>
</g>
</svg>
