<?xml version="1.0" encoding="UTF-8"?>
<svg xmlns="http://www.w3.org/2000/svg" xmlns:xlink="http://www.w3.org/1999/xlink" width="120px" height="px" viewBox="0 0 119 32" version="1.1">
<defs>
<clipPath id="clip1">
  <path d="M 112 4 L 117.886719 4 L 117.886719 11 L 112 11 Z M 112 4 "/>
</clipPath>
<clipPath id="clip2">
  <path d="M 31 7 L 51 7 L 51 30.851562 L 31 30.851562 Z M 31 7 "/>
</clipPath>
</defs>
<g id="surface1">
<g clip-path="url(#clip1)" clip-rule="nonzero">
<path style=" stroke:none;fill-rule:nonzero;fill:rgb(58.431375%,55.29412%,70.588237%);fill-opacity:1;" d="M 114.933594 4.726562 C 116.632812 4.726562 117.886719 5.984375 117.886719 7.59375 C 117.886719 9.207031 116.636719 10.449219 114.933594 10.449219 C 113.234375 10.449219 112 9.207031 112 7.59375 C 112 5.984375 113.25 4.726562 114.933594 4.726562 Z M 117.285156 7.59375 C 117.285156 6.246094 116.28125 5.226562 114.933594 5.226562 C 113.582031 5.226562 112.59375 6.246094 112.59375 7.59375 C 112.59375 8.941406 113.585938 9.949219 114.933594 9.949219 C 116.277344 9.949219 117.285156 8.941406 117.285156 7.59375 Z M 114.523438 8.972656 L 113.761719 8.972656 L 113.761719 6.023438 L 115.136719 6.023438 C 115.667969 6.023438 116.207031 6.273438 116.207031 6.914062 C 116.207031 7.386719 115.871094 7.636719 115.582031 7.726562 L 116.25 8.972656 L 115.40625 8.972656 L 114.851562 7.84375 L 114.523438 7.84375 Z M 114.90625 7.320312 C 115.207031 7.320312 115.425781 7.1875 115.425781 6.886719 C 115.425781 6.640625 115.222656 6.507812 114.921875 6.507812 L 114.527344 6.507812 L 114.527344 7.320312 Z M 114.90625 7.320312 "/>
</g>
<path style=" stroke:none;fill-rule:nonzero;fill:rgb(58.431375%,55.29412%,70.588237%);fill-opacity:1;" d="M 46.089844 7.332031 L 60.976562 7.332031 L 60.976562 10.628906 L 52.066406 20.738281 L 61.140625 20.738281 L 58.722656 24.484375 L 45.757812 24.484375 L 45.757812 21.15625 L 54.660156 11.011719 L 46.089844 11.011719 Z M 46.089844 7.332031 "/>
<path style=" stroke:none;fill-rule:nonzero;fill:rgb(58.431375%,55.29412%,70.588237%);fill-opacity:1;" d="M 60.144531 15.90625 C 60.144531 10.273438 63.601562 6.914062 69.183594 6.914062 C 74.765625 6.914062 78.1875 10.246094 78.1875 15.90625 C 78.1875 21.570312 74.5 24.933594 69.148438 24.933594 C 63.53125 24.933594 60.144531 21.507812 60.144531 15.90625 Z M 65.59375 15.90625 C 65.59375 19.238281 66.589844 21.507812 69.179688 21.507812 C 71.773438 21.507812 72.703125 19.074219 72.703125 15.90625 C 72.703125 12.738281 71.773438 10.339844 69.179688 10.339844 C 66.554688 10.335938 65.59375 12.738281 65.59375 15.90625 Z M 65.59375 15.90625 "/>
<path style=" stroke:none;fill-rule:nonzero;fill:rgb(58.431375%,55.29412%,70.588237%);fill-opacity:1;" d="M 89.917969 14.46875 C 89.917969 13.25 89.851562 12.257812 89.382812 11.617188 C 88.882812 10.949219 88.085938 10.628906 87.089844 10.628906 C 84.730469 10.628906 83.503906 12.066406 83.503906 14.566406 L 83.503906 24.488281 L 78.21875 24.488281 L 78.21875 7.328125 L 83.300781 7.328125 L 83.300781 10.148438 L 83.367188 10.148438 C 84.332031 8.417969 86.089844 6.976562 89.148438 6.976562 C 93.433594 6.976562 95.195312 9.121094 95.195312 13.347656 L 95.195312 24.484375 L 89.910156 22.15625 L 89.910156 14.46875 Z M 89.917969 14.46875 "/>
<path style=" stroke:none;fill-rule:nonzero;fill:rgb(58.431375%,55.29412%,70.588237%);fill-opacity:1;" d="M 104.003906 24.933594 C 98.257812 24.933594 95.195312 21.382812 95.195312 15.878906 C 95.195312 10.375 98.453125 6.914062 104.070312 6.914062 C 110.082031 6.914062 112.609375 10.722656 112.609375 15.75 L 112.609375 17.09375 L 100.515625 17.09375 C 100.746094 20.167969 101.941406 21.511719 104.167969 21.511719 C 106.261719 21.511719 106.925781 20.519531 107.257812 19.496094 L 112.4375 19.496094 C 111.910156 22.820312 108.820312 24.933594 104.003906 24.933594 Z M 107.226562 13.953125 C 107.058594 11.523438 106.0625 10.082031 104.070312 10.082031 C 101.910156 10.082031 100.78125 11.554688 100.515625 14.179688 L 107.226562 14.179688 Z M 107.226562 13.953125 "/>
<path style=" stroke:none;fill-rule:nonzero;fill:rgb(58.431375%,55.29412%,70.588237%);fill-opacity:1;" d="M 5.449219 16.101562 L 5.449219 22.15625 L 0 24.484375 L 0 0 L 8.839844 0 C 14.351562 0 18.539062 2.242188 18.539062 7.90625 C 18.539062 13.859375 14.054688 16.101562 8.371094 16.101562 Z M 8.742188 12.226562 C 11.5625 12.226562 13.191406 10.816406 13.191406 7.96875 C 13.191406 4.960938 11.566406 3.777344 8.808594 3.777344 L 5.449219 3.777344 L 5.449219 12.226562 Z M 8.742188 12.226562 "/>
<path style=" stroke:none;fill-rule:nonzero;fill:rgb(58.431375%,55.29412%,70.588237%);fill-opacity:1;" d="M 17.511719 12.417969 C 17.710938 8.996094 20.535156 6.945312 25.1875 6.945312 C 30.933594 6.945312 32.929688 9.21875 32.929688 13.796875 L 32.929688 19.714844 C 32.929688 20.640625 33.226562 20.992188 34.359375 20.992188 L 31.941406 24.511719 L 32.597656 24.511719 C 30.039062 24.511719 28.8125 24.03125 28.246094 22.144531 L 28.179688 22.144531 C 27.050781 23.746094 25.320312 24.675781 22.796875 24.675781 C 19.074219 24.675781 16.75 22.785156 16.75 19.585938 C 16.75 17.601562 17.679688 16.191406 19.441406 15.296875 C 21.335938 14.335938 24.027344 14.175781 27.816406 14.019531 L 27.816406 13.089844 C 27.816406 11.199219 26.984375 10.210938 25.191406 10.210938 C 23.394531 10.210938 22.628906 11.136719 22.5625 12.417969 Z M 27.84375 17.25 L 27.84375 16.703125 C 25.054688 16.867188 23.660156 17.089844 22.828125 17.632812 C 22.230469 18.015625 21.964844 18.65625 21.964844 19.359375 C 21.964844 20.609375 22.859375 21.472656 24.324219 21.472656 C 26.148438 21.472656 27.84375 20.101562 27.84375 17.25 Z M 27.84375 17.25 "/>
<g clip-path="url(#clip2)" clip-rule="nonzero">
<path style=" stroke:none;fill-rule:nonzero;fill:rgb(58.431375%,55.29412%,70.588237%);fill-opacity:1;" d="M 42.339844 24.578125 L 42.472656 24.996094 C 42.972656 26.53125 43.902344 27.074219 45.894531 27.074219 C 46.660156 27.074219 49.804688 26.980469 50.105469 26.914062 L 47.691406 30.628906 C 47.589844 30.660156 46.792969 30.851562 45.066406 30.851562 C 40.449219 30.851562 38.71875 29.027344 37.289062 25.027344 L 31.042969 7.332031 L 36.191406 7.332031 L 38.949219 16.355469 C 39.515625 18.210938 39.710938 19.714844 39.710938 19.714844 L 39.8125 19.714844 C 39.8125 19.714844 40.011719 18.210938 40.609375 16.355469 L 43.535156 7.332031 L 48.980469 7.332031 Z M 42.339844 24.578125 "/>
</g>
</g>
</svg>
